<svg id="Layer_1" data-name="Layer 1" xmlns="http://www.w3.org/2000/svg" viewBox="0 0 64 64"><defs><style>.cls-1{fill:#fff;}</style></defs><path class="cls-1" d="M-.2,0h64V63.9a.32.32,0,0,1,0,.14H-.2ZM36,32.08A17.65,17.65,0,1,0,18.4,49.72,17.67,17.67,0,0,0,36,32.08Zm1.36,0c0,.6,0,1.19,0,1.78s.07.9.11,1.35.1.79.15,1.19.14.93.23,1.39c.13.66.28,1.32.46,2a19.87,19.87,0,0,0,1.34,3.59,14.33,14.33,0,0,0,1.61,2.61,9.15,9.15,0,0,0,1.54,1.57,6.64,6.64,0,0,0,1.46.89,5.07,5.07,0,0,0,3.71.19,6.2,6.2,0,0,0,1.85-1,9.41,9.41,0,0,0,1.74-1.77A14.24,14.24,0,0,0,53,43.51a20.17,20.17,0,0,0,1.37-3.58,25.63,25.63,0,0,0,.74-3.48c.08-.52.14-1.05.19-1.58s.1-1.25.11-1.87,0-1.11,0-1.66c0-.33,0-.65,0-1s-.06-.84-.1-1.25-.08-.86-.14-1.28-.18-1.1-.28-1.64a26.86,26.86,0,0,0-.81-3.05,18.24,18.24,0,0,0-1.58-3.49,11.67,11.67,0,0,0-1.43-2,8.42,8.42,0,0,0-1.66-1.44,5.85,5.85,0,0,0-2-.85,4.77,4.77,0,0,0-1.46-.08,5.52,5.52,0,0,0-2.2.74,7.65,7.65,0,0,0-1.59,1.24,11.19,11.19,0,0,0-1.62,2.08,17.37,17.37,0,0,0-1.47,3,23.06,23.06,0,0,0-1.11,3.92c-.13.66-.24,1.33-.32,2-.07.51-.12,1-.16,1.52C37.41,30.55,37.37,31.31,37.39,32.06Zm19.1-.21c0,1.06,0,1.93,0,2.8l.09,1.81a.62.62,0,0,0,0,.13c0,.59.08,1.18.15,1.77s.09.9.15,1.34.14,1,.22,1.49q.2,1.25.51,2.46a12.75,12.75,0,0,0,.59,1.81,6.55,6.55,0,0,0,.39.8,2.82,2.82,0,0,0,.45.58,1.27,1.27,0,0,0,.41.27.69.69,0,0,0,.51,0,1.2,1.2,0,0,0,.36-.22,2.23,2.23,0,0,0,.35-.4,4.48,4.48,0,0,0,.35-.6,11.11,11.11,0,0,0,.44-1.08,18.89,18.89,0,0,0,.62-2.35c.1-.54.2-1.08.29-1.63,0-.3.09-.61.13-.91s.1-.83.14-1.25.08-.75.11-1.13.06-.7.08-1c0-.52.07-1,.09-1.57s0-1.35.06-2c0-1.63,0-3.26-.12-4.88,0-.34,0-.68-.07-1-.05-.55-.1-1.1-.16-1.65s-.08-.84-.14-1.25-.15-.95-.22-1.43c-.14-.8-.3-1.59-.51-2.37a13.19,13.19,0,0,0-.59-1.74,5.17,5.17,0,0,0-.38-.74c-.09-.13-.19-.27-.29-.39a1.12,1.12,0,0,0-.34-.31.78.78,0,0,0-.92,0,1.48,1.48,0,0,0-.3.26,3.34,3.34,0,0,0-.37.53,5.58,5.58,0,0,0-.48,1,17.44,17.44,0,0,0-.74,2.63c-.13.61-.23,1.23-.33,1.84s-.16,1.12-.22,1.68-.1,1-.15,1.49c-.06.76-.11,1.51-.15,2.27C56.52,29.91,56.48,31,56.49,31.85Z" transform="translate(0.2 -0.04)"/><path d="M36,32.08A17.65,17.65,0,1,1,18.37,14.41,17.67,17.67,0,0,1,36,32.08Z" transform="translate(0.2 -0.04)"/><path d="M37.39,32.06c0-.75,0-1.51.07-2.27,0-.5.09-1,.16-1.52.08-.67.19-1.34.32-2a23.06,23.06,0,0,1,1.11-3.92,17.37,17.37,0,0,1,1.47-3,11.19,11.19,0,0,1,1.62-2.08A7.65,7.65,0,0,1,43.73,16a5.52,5.52,0,0,1,2.2-.74,4.77,4.77,0,0,1,1.46.08,5.85,5.85,0,0,1,2,.85,8.42,8.42,0,0,1,1.66,1.44,11.67,11.67,0,0,1,1.43,2,18.24,18.24,0,0,1,1.58,3.49,26.86,26.86,0,0,1,.81,3.05c.1.54.2,1.09.28,1.64s.1.85.14,1.28.08.83.1,1.25,0,.65,0,1c0,.55,0,1.11,0,1.66s-.06,1.25-.11,1.87-.11,1.06-.19,1.58a25.63,25.63,0,0,1-.74,3.48A20.17,20.17,0,0,1,53,43.51a14.24,14.24,0,0,1-1.41,2.29,9.41,9.41,0,0,1-1.74,1.77,6.2,6.2,0,0,1-1.85,1,5.07,5.07,0,0,1-3.71-.19,6.64,6.64,0,0,1-1.46-.89,9.15,9.15,0,0,1-1.54-1.57,14.33,14.33,0,0,1-1.61-2.61,19.87,19.87,0,0,1-1.34-3.59c-.18-.65-.33-1.31-.46-2-.09-.46-.17-.92-.23-1.39s-.11-.79-.15-1.19-.08-.9-.11-1.35S37.39,32.66,37.39,32.06Z" transform="translate(0.2 -0.04)"/><path d="M56.49,31.85c0-.87,0-1.94.07-3,0-.76.09-1.51.15-2.27,0-.5.09-1,.15-1.49s.14-1.12.22-1.68.2-1.23.33-1.84a17.44,17.44,0,0,1,.74-2.63,5.58,5.58,0,0,1,.48-1,3.34,3.34,0,0,1,.37-.53,1.48,1.48,0,0,1,.3-.26.78.78,0,0,1,.92,0,1.12,1.12,0,0,1,.34.31c.1.12.2.26.29.39a5.17,5.17,0,0,1,.38.74,13.19,13.19,0,0,1,.59,1.74c.21.78.37,1.57.51,2.37.07.48.15.95.22,1.43s.1.83.14,1.25.11,1.1.16,1.65c0,.33,0,.67.07,1,.09,1.62.14,3.25.12,4.88,0,.67,0,1.35-.06,2s-.06,1-.09,1.57c0,.34,0,.69-.08,1s-.07.75-.11,1.13-.09.83-.14,1.25-.08.61-.13.91c-.09.55-.19,1.09-.29,1.63a18.89,18.89,0,0,1-.62,2.35,11.11,11.11,0,0,1-.44,1.08,4.48,4.48,0,0,1-.35.6,2.23,2.23,0,0,1-.35.4,1.2,1.2,0,0,1-.36.22.69.69,0,0,1-.51,0,1.27,1.27,0,0,1-.41-.27,2.82,2.82,0,0,1-.45-.58,6.55,6.55,0,0,1-.39-.8,12.75,12.75,0,0,1-.59-1.81q-.31-1.21-.51-2.46c-.08-.5-.16-1-.22-1.49s-.1-.89-.15-1.34-.1-1.18-.15-1.77a.62.62,0,0,1,0-.13l-.09-1.81C56.5,33.78,56.49,32.91,56.49,31.85Z" transform="translate(0.2 -0.04)"/></svg>