<svg xmlns="http://www.w3.org/2000/svg" width="196.059" height="41.197" viewBox="0 0 196.059 41.197"><g transform="translate(0)"><path d="M123.007,107.925a11.932,11.932,0,0,1,8.828,3.529,13.016,13.016,0,0,1-.021,17.808,11.915,11.915,0,0,1-8.807,3.553,11.272,11.272,0,0,1-6.495-1.961v9.777H110.15V108.579h4.228l1.088,2.135a10.962,10.962,0,0,1,7.541-2.788Zm-5.121,17.061a6.171,6.171,0,0,0,4.579,1.832,6.258,6.258,0,0,0,6.429-6.453,6.669,6.669,0,0,0-.827-3.313,5.935,5.935,0,0,0-2.288-2.309,6.564,6.564,0,0,0-3.293-.831,6.668,6.668,0,0,0-3.313.831,5.733,5.733,0,0,0-2.288,2.309,6.8,6.8,0,0,0-.807,3.313A6.3,6.3,0,0,0,117.886,124.986Z" transform="translate(-110.15 -100.078)" fill="#1b1d27"/><path d="M204.016,132.775a13.271,13.271,0,0,1-6.54-1.613,11.581,11.581,0,0,1-4.544-4.468,12.516,12.516,0,0,1-1.634-6.342,11.913,11.913,0,0,1,3.616-8.894,13.472,13.472,0,0,1,18.18,0,12.689,12.689,0,0,1-.024,17.766A12.436,12.436,0,0,1,204.016,132.775Zm0-5.97a5.959,5.959,0,0,0,4.488-1.815,7.066,7.066,0,0,0,0-9.283,6.522,6.522,0,0,0-9.022,0,6.421,6.421,0,0,0-1.738,4.642,7.357,7.357,0,0,0,.459,2.615,5.681,5.681,0,0,0,1.286,2.051,6.113,6.113,0,0,0,1.982,1.307A6.606,6.606,0,0,0,204.016,126.805Z" transform="translate(-163.084 -100.083)" fill="#1b1d27"/><path d="M277.53,117.4V85.36h6.362V117.4Z" transform="translate(-219.336 -85.36)" fill="#1b1d27"/><path d="M324.4,109.81h6.8l-10.288,23.235a19.975,19.975,0,0,1-4.447,6.842,9.029,9.029,0,0,1-6.143,1.975h-2.618v-5.768h2.225a4.946,4.946,0,0,0,3.226-.827,10.144,10.144,0,0,0,2.086-3.532l.087-.174L305.35,109.81h6.936l6.276,14.47Z" transform="translate(-237.483 -101.309)" fill="#1b1d27"/><path d="M402.509,108.584h4.141v20.791a13.069,13.069,0,0,1-1.46,6.345,9.989,9.989,0,0,1-4.172,4.12,13.49,13.49,0,0,1-6.408,1.436,13.311,13.311,0,0,1-8-2.309,9.822,9.822,0,0,1-3.974-6.328h6.31a4.231,4.231,0,0,0,2.086,2.333,7.11,7.11,0,0,0,3.442.848,6.06,6.06,0,0,0,4.207-1.505,5.138,5.138,0,0,0,1.679-4.03v-.873a11.24,11.24,0,0,1-6.714,2.086,11.7,11.7,0,0,1-5.928-1.547,11.088,11.088,0,0,1-4.228-4.252,11.918,11.918,0,0,1-1.5-5.956,11.512,11.512,0,0,1,3.379-8.372,11.738,11.738,0,0,1,16.15-.435Zm-8.1,17.262a5.813,5.813,0,0,0,4.318-1.738,6.47,6.47,0,0,0,.021-8.72,6.258,6.258,0,0,0-8.608,0,5.91,5.91,0,0,0-1.7,4.339,6.022,6.022,0,0,0,1.676,4.381A5.74,5.74,0,0,0,394.408,125.846Z" transform="translate(-287.48 -100.083)" fill="#1b1d27"/><path d="M478.827,132.775a13.271,13.271,0,0,1-6.54-1.613,11.581,11.581,0,0,1-4.555-4.468,12.541,12.541,0,0,1-1.634-6.342,11.914,11.914,0,0,1,3.616-8.894,13.472,13.472,0,0,1,18.18,0,12.689,12.689,0,0,1-.024,17.766A12.423,12.423,0,0,1,478.827,132.775Zm0-5.97a5.959,5.959,0,0,0,4.489-1.815,7.066,7.066,0,0,0,0-9.283,6.522,6.522,0,0,0-9.022,0,6.418,6.418,0,0,0-1.738,4.642,7.357,7.357,0,0,0,.459,2.615,5.681,5.681,0,0,0,1.286,2.051,6.112,6.112,0,0,0,1.982,1.307A6.606,6.606,0,0,0,478.827,126.805Z" transform="translate(-342.343 -100.083)" fill="#1b1d27"/><path d="M565.794,108.18a7.974,7.974,0,0,1,6.342,2.681,10.536,10.536,0,0,1,2.333,7.169v14.255H568.1v-13.25q0-5.274-4.1-5.274a5.239,5.239,0,0,0-2.813.741,4.728,4.728,0,0,0-1.832,2.135,7.881,7.881,0,0,0-.629,3.272v12.377H552.36V108.747h4.36l1.262,2.92a8,8,0,0,1,1.505-1.46,10.187,10.187,0,0,1,1.853-1.092,10.461,10.461,0,0,1,2.114-.7A11.035,11.035,0,0,1,565.794,108.18Z" transform="translate(-398.614 -100.246)" fill="#1b1d27"/></g><rect width="12.127" height="12.127" rx="4.84" transform="translate(183.932 19.974)" fill="#4f86d9"/></svg>