<svg xmlns="http://www.w3.org/2000/svg" width="386.906" height="287.59" viewBox="0 0 386.906 287.59"><g transform="translate(-1154.999 -2689)"><g transform="translate(1311.756 2689)"><g transform="translate(9.387 56.763)"><path d="M3706.507-898.755c-1.63-1.161,11.709-47.744,13.176-48.919,1.406-1.128,42.177-2.291,43.239-1.244,1.437,1.418,18.509,48.212,16.669,49.519-1.614,1.144-71.349,1.877-73.084.643Z" transform="translate(-3706.369 949.326)" fill="#93b4e6"/></g><path d="M3768.872-909.2c.138.439,0,31.451,0,31.451l3.039,2.636h-10.775l.277-35.26Z" transform="translate(-3712.188 995.274)" fill="#3c3d49"/><path d="M3738.548-909.2c-.138.439,0,31.451,0,31.451l-3.039,2.636h10.775l-.276-35.26Z" transform="translate(-3705.073 995.274)" fill="#3c3d49"/><rect width="92.134" height="92.134" rx="10" fill="#719de0"/><path d="M3714.2-957.87c-1.373-.487-1.236-20.421,0-20.917,1.186-.474,60.718-1.2,61.612-.765,1.211.6,1.216,20.265-.334,20.814-1.36.482-59.814,1.387-61.277.868Z" transform="translate(-3698.884 1014.517)" fill="#4f86d9"/><circle cx="7.183" cy="7.183" r="7.183" transform="translate(23.596 38.634)" fill="#3c3d49"/><circle cx="7.183" cy="7.183" r="7.183" transform="translate(54.172 38.634)" fill="#3c3d49"/><g transform="translate(38.486 56.961)"><path d="M3754.237-942.374a9.772,9.772,0,0,1-6.93-2.864,2.231,2.231,0,0,1-.655-1.579,2.231,2.231,0,0,1,.655-1.579,2.23,2.23,0,0,1,1.579-.655,2.23,2.23,0,0,1,1.579.655,5.34,5.34,0,0,0,7.543,0,2.23,2.23,0,0,1,1.579-.655,2.23,2.23,0,0,1,1.579.655,2.231,2.231,0,0,1,.655,1.579,2.231,2.231,0,0,1-.655,1.579,9.77,9.77,0,0,1-6.929,2.864Z" transform="translate(-3746.652 949.051)" fill="#3c3d49"/></g></g><g transform="translate(1357.47 2893.961)"><path d="M6355.112-2077.154c.138.439,0,31.452,0,31.452l3.039,2.636h-10.774l.275-35.26Z" transform="translate(-6347.377 2078.325)" fill="#4f86d9"/></g><g transform="translate(1338.957 2893.961)"><path d="M6324.788-2077.154c-.139.439,0,31.452,0,31.452l-3.04,2.636h10.776l-.277-35.26Z" transform="translate(-6321.749 2078.325)" fill="#4f86d9"/></g><g transform="translate(1308.516 2809.409)"><rect width="92.134" height="92.134" rx="10" fill="#c7d7f0"/></g><g transform="translate(1332.113 2836.655)"><g transform="translate(0 0)"><circle cx="7.183" cy="7.183" r="7.183" fill="#4f86d9"/></g><g transform="translate(30.576 0)"><circle cx="7.183" cy="7.183" r="7.183" transform="translate(0)" fill="#4f86d9"/></g><g transform="translate(14.888 18.329)"><path d="M6340.467-2125.6a9.772,9.772,0,0,1-6.929-2.865,2.23,2.23,0,0,1-.655-1.579,2.229,2.229,0,0,1,.655-1.578,2.23,2.23,0,0,1,1.579-.655,2.231,2.231,0,0,1,1.579.655,5.34,5.34,0,0,0,7.542,0,2.229,2.229,0,0,1,1.578-.655,2.229,2.229,0,0,1,1.579.655,2.232,2.232,0,0,1,0,3.157,9.767,9.767,0,0,1-6.928,2.866Z" transform="translate(-6332.884 2132.281)" fill="#4f86d9"/></g></g><g transform="translate(1217.869 2930.158)"><path d="M6161.862-1977.044c.139.439,0,31.451,0,31.451l3.039,2.636h-10.775l.275-35.26Z" transform="translate(-6154.126 1978.216)" fill="#4f86d9"/></g><g transform="translate(1199.357 2930.158)"><path d="M6131.538-1977.044c-.139.439,0,31.451,0,31.451l-3.04,2.636h10.774l-.275-35.26Z" transform="translate(-6128.498 1978.216)" fill="#4f86d9"/></g><g transform="translate(1154.999 2833.489)"><path d="M6114.662-2110.933l-46.042,40.28a4.47,4.47,0,0,0-1.166,5.125l24.083,56.236a4.468,4.468,0,0,0,4.508,2.693l60.923-5.524a4.47,4.47,0,0,0,3.948-3.46l13.573-59.646a4.472,4.472,0,0,0-2.06-4.832l-52.534-31.343a4.468,4.468,0,0,0-5.234.473Z" transform="translate(-6067.093 2112.038)" fill="#a4c0e9"/></g><g transform="translate(1196.847 2872.436)"><g transform="translate(30.576 0)"><circle cx="7.183" cy="7.183" r="7.183" transform="translate(0)" fill="#4f86d9"/></g><g transform="translate(0 0)"><circle cx="7.183" cy="7.183" r="7.183" fill="#4f86d9"/></g><g transform="translate(13.54 16.26)"><path d="M6152.078-2028.109a9.853,9.853,0,0,1-1.417-.1,9.73,9.73,0,0,1-6.449-3.828,2.232,2.232,0,0,1-.423-1.656,2.231,2.231,0,0,1,.873-1.469,2.232,2.232,0,0,1,1.656-.423,2.231,2.231,0,0,1,1.47.873,5.29,5.29,0,0,0,3.51,2.083,5.291,5.291,0,0,0,3.956-1.008,2.232,2.232,0,0,1,1.656-.423,2.231,2.231,0,0,1,1.47.873,2.232,2.232,0,0,1,.423,1.656,2.231,2.231,0,0,1-.872,1.47,9.729,9.729,0,0,1-5.853,1.957Z" transform="translate(-6143.767 2035.612)" fill="#4f86d9"/></g></g><g transform="translate(1312.636 2917.854)" opacity="0.1"><g transform="translate(0 0)"><ellipse cx="41.946" cy="11.17" rx="41.946" ry="11.17" fill="#4f86d9"/></g></g><g transform="translate(1172.836 2954.251)" opacity="0.1"><g transform="translate(0 0)"><ellipse cx="41.946" cy="11.17" rx="41.946" ry="11.17" fill="#4f86d9"/></g></g><g transform="translate(1450.037 2954.251)" opacity="0.1"><g transform="translate(0 0)"><ellipse cx="41.946" cy="11.17" rx="41.946" ry="11.17" fill="#4f86d9"/></g></g><g transform="translate(1495.646 2929.066)"><path d="M6546.392-1978.554c.139.439,0,31.451,0,31.451l3.04,2.636h-10.775l.275-35.26Z" transform="translate(-6538.656 1979.726)" fill="#4f86d9"/></g><g transform="translate(1477.133 2929.066)"><path d="M6516.068-1978.554c-.138.439,0,31.451,0,31.451l-3.04,2.636H6523.8l-.276-35.26Z" transform="translate(-6513.028 1979.726)" fill="#4f86d9"/></g><g transform="translate(1436.987 2843.902)"><g transform="translate(0 0)"><path d="M6509.356-2094.608a6.755,6.755,0,0,1,9.366-1.882,6.758,6.758,0,0,1,2.313,2.63l20.317,41.041,20.318,41.04a6.756,6.756,0,0,1-3.057,9.051,6.752,6.752,0,0,1-3.433.687l-91.4-5.854a6.755,6.755,0,0,1-6.312-7.173,6.748,6.748,0,0,1,1.116-3.313l25.386-38.114Z" transform="translate(-6457.455 2097.622)" fill="#c7d7f0"/></g></g><g transform="translate(1468.944 2886.524)"><g transform="translate(0 0)"><circle cx="7.183" cy="7.183" r="7.183" fill="#4f86d9"/></g><g transform="translate(26.964 0)"><g transform="translate(0)"><circle cx="7.183" cy="7.183" r="7.183" fill="#4f86d9"/></g></g></g><g transform="translate(1482.352 2901.979)"><g transform="translate(0 0)"><path d="M6526.567-2009.282a9.731,9.731,0,0,1-5.288-1.565,2.232,2.232,0,0,1-.975-1.406,2.231,2.231,0,0,1,.308-1.683,2.23,2.23,0,0,1,1.406-.975,2.232,2.232,0,0,1,1.683.307,5.292,5.292,0,0,0,4.016.73,5.306,5.306,0,0,0,3.356-2.325,2.232,2.232,0,0,1,3.086-.668,2.23,2.23,0,0,1,.976,1.406,2.23,2.23,0,0,1-.308,1.683,9.729,9.729,0,0,1-6.166,4.271,9.864,9.864,0,0,1-2.094.225Z" transform="translate(-6520.254 2017.224)" fill="#4f86d9"/></g></g></g></svg>