<svg xmlns="http://www.w3.org/2000/svg" xmlns:xlink="http://www.w3.org/1999/xlink" viewBox="0 0 326.28 554.55"><defs><style>.cls-1,.cls-6{fill:none;}.cls-2{fill:#fc3;}.cls-3{fill:#fbb03b;}.cls-4{fill:#c33;}.cls-5{clip-path:url(#clip-path);}.cls-6{stroke:#231f20;stroke-miterlimit:10;stroke-width:0.84px;}</style><clipPath id="clip-path" transform="translate(0 0)"><rect class="cls-1" width="326.28" height="554.55"/></clipPath></defs><g id="Layer_2" data-name="Layer 2"><g id="Layer_1-2" data-name="Layer 1"><path class="cls-2" d="M110.55,280.42c4.41-2.47,9.58-3.21,14.63-3.34,25.8-.66,49.77,13.49,75.46,16,10.39,1,21.16.15,31,3.69s18.55,13.55,15.91,23.65a27.87,27.87,0,0,1-4.35,8.44c-5.14,7.54-11.19,15-19.61,18.52-9.2,3.83-19.85,2.25-29.13-1.38s-17.67-9.17-26.64-13.51c-21.47-10.38-43.32-7.94-65.07-14.35C85.19,313,98,287.45,110.55,280.42Z" transform="translate(0 0)"/><path class="cls-3" d="M102,110.4l9.58-7.25a13.62,13.62,0,0,0,15.05-.22,32,32,0,0,0,5-4.94A76.29,76.29,0,0,1,157.06,79.5c2.58-1.16,5.28-2.2,7.45-4,2.52-2.12,4.12-5.11,5.56-8.07q3.27-6.7,5.86-13.7c1.4-3.8,2.55-8.4.1-11.63-1.85-2.42-5.21-3.24-7.21-5.54s-2.28-5.9-2.93-9c-2.4-11.67-13.48-20.95-25.39-21.26-6.6-.18-13,2.09-19.53,3a94.45,94.45,0,0,1-16.82.24c-5.43-.25-11.07-.56-15.84-3.16C86,5,83.8,3.15,81.16,2.71c-3.89-.63-7.48,1.92-11.07,3.55C59.77,11,47.49,8.31,36.63,11.63c-9.33,2.85-16.89,10-22.18,18.16S5.85,47.29,2.6,56.49a4.18,4.18,0,0,0-.35,2.4c.4,1.6,2.45,2.19,3.29,3.61,1.09,1.83-.18,4.17.07,6.29A8.78,8.78,0,0,0,7.78,73L21.19,90.24a10.58,10.58,0,0,0,3.3,3.16c1.58.8,3.43.75,5.19.88A24.08,24.08,0,0,1,45.57,102c3.68,4,6.33,9.63,11.52,11.33,7.59,2.48,14.8-4.83,22.71-5.92,4.62-.63,9.21.91,13.81,1.69a42.52,42.52,0,0,0,25.54-3.68" transform="translate(0 0)"/><path class="cls-4" d="M192.47,170.5c11.4-.6,20.59,8.86,31.32,12.72,7,2.52,14.61,2.61,22,2.26,7.68-.36,15.44-1.19,22.61-4,14.92-5.76,25.49-19.1,34.05-32.61,10.07-15.89,18.61-33.34,20.27-52.08s-4.6-39-19.56-50.41c-18.49-14.11-45.11-11.52-66.48-2.36S196.77,68,175.6,77.64c-9.9,4.51-22.5,11.6-20.13,22.22,2.17,9.7,15.19,12,21.41,19.8,5.56,6.92,4.73,17,1.84,25.44s-7.54,16.27-8.92,25" transform="translate(0 0)"/><g id="Centella"><g class="cls-5"><g class="cls-5"><path class="cls-6" d="M211.18,141.16c.65-5.24-13.11-15.07-17.73-17-3.75-1.58-7.93-2.1-11.51-4.05-9.78-5.31-11.48-18.6-18.52-27.22-4.12-5-10.17-8.59-13-14.44a16.65,16.65,0,0,1,4.85-20,8.91,8.91,0,0,1,5.31-2c2,0,4,1.07,6,.8,2.65-.34,4.49-2.78,6.91-3.91,3.63-1.7,7.95-.23,11.36,1.88s6.49,4.88,10.31,6.06,8.82.08,10.28-3.64" transform="translate(0 0)"/><path class="cls-6" d="M218,147.8c4.23,2.49,5.18,6.11,7.35,10.52,6.08,12.4,17.73,21,28.95,29,5.32,3.83,10.93,7.77,17.43,8.66,2.2.3,4.76.09,6.15-1.65.75-.94,1-2.2,1.9-3s2.49-1.14,3.81-1.57c5.16-1.69,7.73-7.41,9.14-12.65s2.53-11,6.62-14.6c2.29-2,5.34-3.12,7.25-5.49,2.9-3.59,2.19-9.13-.52-12.86-1.13-1.56-2.65-3.21-2.32-5.11a7.87,7.87,0,0,1,1.31-2.6,11.39,11.39,0,0,0-.86-12.73c-1.06-1.31-2.47-2.47-2.84-4.11a5.81,5.81,0,0,1,1.66-4.85c4.64-5.42,13.05-6.22,17.86-11.49,3.4-3.73,4.39-9,4.79-14.06.48-6.07.27-12.44-2.48-17.88s-8-9.56-13-13.34a19.63,19.63,0,0,0-5.66-3.36,38.15,38.15,0,0,0-5.32-.91c-3.87-.65-7.45-2.41-11.14-3.75a53.78,53.78,0,0,0-24.86-2.85c-3.35.41-6.71,1.14-10.06.78s-6.26-1.64-9.48-1.77c-7.26-.28-13.5,5.41-20.71,6.31-3.05.37-6.15-.13-9.21.12s-6.33,1.5-7.72,4.24c-.38.76-.65,1.65-1.39,2.07s-2-.32-1.55-1" transform="translate(0 0)"/><path class="cls-6" d="M96.06,116c4.9,41.76,6.73,83.82,8.56,125.84.59,13.61,1.18,27.25.42,40.86-.76,13.44-2.84,26.77-3.72,40.21-1,14.78-.46,29.62-.52,44.44-.27,59.25-9.67,118-19,176.54" transform="translate(0 0)"/><path class="cls-6" d="M105.4,466c-2.53,33.84-7.76,44.13-14.52,77.39" transform="translate(0 0)"/><path class="cls-6" d="M153.28,82.47c-2.2,3.36-3.34,5-7,6.76-2.43,1.16-5.42,1.56-7.08,3.68-1.08,1.37-1.35,3.19-2,4.81-2.39,5.86-9.38,8.2-15.62,9.24s-15.19,2.45-19.63,7A722.66,722.66,0,0,1,113.5,284.57c-1.15,22.88-3.36,45.69-4.25,68.57" transform="translate(0 0)"/><path class="cls-6" d="M95.08,116.78a49.09,49.09,0,0,1-18.32-.43c-3.54-.76-7.13-1.92-10.7-1.33-2,.34-4,1.25-6.07,1.3-4.23.1-7.59-3.29-11-5.77-5.88-4.26-13.06-6.23-19.72-9.15S16,94.05,13.52,87.21A18.26,18.26,0,0,0,12.28,84c-.91-1.59-2.47-2.68-3.83-3.92a20.5,20.5,0,0,1-6.61-13.8,3.74,3.74,0,0,1,.58-2.67c.43-.49,1.08-.78,1.41-1.35.8-1.36-.8-2.8-1.81-4C-.84,54.8.69,49.65,2.36,45.51S6.1,36.6,10.14,34.34c2.36-1.33,5.27-1.75,7.21-3.64,1.73-1.68,2.32-4.18,3.44-6.32,2.72-5.22,8.4-8.07,13.72-10.58C41.39,10.55,48.44,7.25,56,6.49a58.08,58.08,0,0,0,7.81-.82C66.69,5,69.28,3.51,72,2.36,75.43.9,79.23,0,82.9.66S90,4,90.84,7.65c5.48,1.32,10.42-6,15.83-4.45a13.11,13.11,0,0,1,3.61,2.13,28.56,28.56,0,0,0,22,4.61C135.2,9.34,138,8.27,141,7.8a21.94,21.94,0,0,1,25.23,24.34c-.26,2.19-1.92,4.77-.64,6.57,5.2,7.4,6.18,12,6.18,15.61" transform="translate(0 0)"/><path class="cls-6" d="M146.49,336.45q-2.28,14.12-4.57,28.23c-1.92,11.84-3.84,23.7-4.82,35.67-.68,8.28-.91,16.59-1.15,24.9l-2.76,99.24c-.26,9.57-.52,19.23,1.41,28.61" transform="translate(0 0)"/><path class="cls-6" d="M187.35,328.51c-2.2,4.41-3.64,2.19-8.35.73-1.36,4.83-7.54,6.27-12.55,5.91s-10.75-1.76-15,.87c-6.65,37.24-11.37,75.05-9.75,112.84.26,6,.67,12,.61,17.94-.07,6.7-.75,13.36-1.27,20a448.27,448.27,0,0,0-.14,67.67" transform="translate(0 0)"/><path class="cls-6" d="M148.16,335.69c-3.79,3.75-10.39,3.29-14.71.16-2.43-1.76-4.72-4.34-7.71-4.18a7.76,7.76,0,0,1-2.71.1c-2-.6-2-3.3-2.65-5.24-.84-2.39-3.08-3.94-4.66-5.92-3.1-3.89-3.5-9.38-2.26-14.19s3.92-9.1,6.57-13.3c1.31-2.08,2.7-4.25,4.85-5.46,1.65-.93,6.25-1.76,8.13-2" transform="translate(0 0)"/><path class="cls-6" d="M196.76,353.92c-3.67,59.51-5.44,119.46-17.73,177.8" transform="translate(0 0)"/><path class="cls-6" d="M220.46,149.13c-1.84-1.89-5.18-1.43-7.17.31s-2.94,4.35-3.72,6.88c-7.88,25.66-14.06,170.78-12.81,197.6" transform="translate(0 0)"/><path class="cls-6" d="M187.89,317.25c-.78,31.85-10.95,183.14-17.35,214.58" transform="translate(0 0)"/><path class="cls-6" d="M211.68,138.43c-12.06,22.26-14,48.41-15.65,73.67" transform="translate(0 0)"/><path class="cls-6" d="M113.77,155.75l-1.2.54a7.38,7.38,0,0,1,3.16,1.2,3.31,3.31,0,0,1,1.41,2.94c-.3,2.25,0,2.55,1.43,4.68.22.32.43.77.17,1a.89.89,0,0,1-.72.18,6.76,6.76,0,0,1-2.74-.57,2.61,2.61,0,0,1-1.54-2.19" transform="translate(0 0)"/><path class="cls-6" d="M118.1,168.64l1.71,3.12a4.44,4.44,0,0,1,.72,2.11,1.51,1.51,0,0,1-1.31,1.56,2.22,2.22,0,0,1-1.51-.9l-3.85-4.11" transform="translate(0 0)"/><path class="cls-6" d="M112.84,167.82c1.89-.16,3.23,2,3.19,3.88-.06,2.5-2.3,5-4.75,4.53a4.49,4.49,0,0,1-3.06-2.86,13.22,13.22,0,0,1-.71-4.29c0,1.67.49,1.83,0,3.42a5.11,5.11,0,0,1-3.33,3.46,2.08,2.08,0,0,1-2.43-.86,2.47,2.47,0,0,1-.08-1.35A12.39,12.39,0,0,1,104,168c-.44,3.83-3.42,8.83-6.12,11.58a14.85,14.85,0,0,1,1.72-11.4c-1.31-.75-3.19,1.77-3.9.43a1.68,1.68,0,0,1-.11-1.11c.42-2.22,2.92-3.37,4-5.33" transform="translate(0 0)"/><path class="cls-6" d="M143.65,410.57a14.55,14.55,0,0,1,4.65,1.95,1.87,1.87,0,0,1,.83.84,1.56,1.56,0,0,1-.16,1.17,3.92,3.92,0,0,1-2.89,2,8.12,8.12,0,0,1-3.59-.33" transform="translate(0 0)"/><path class="cls-6" d="M143.66,418.35a32.77,32.77,0,0,1,1.93,3.41,3.13,3.13,0,0,1,.43,1.47,1.15,1.15,0,0,1-.85,1.13,1.45,1.45,0,0,1-.94-.26c-1.25-.76-1-2.41-1.07-3.87a6.8,6.8,0,0,0,3.48,1.46c1.27,0,2.65-1,2.53-2.25a3.11,3.11,0,0,0-.66-1.44,16.35,16.35,0,0,0-3.92-3.91" transform="translate(0 0)"/><path class="cls-6" d="M137.28,459.48a1.35,1.35,0,0,1-.51,1.6,13.76,13.76,0,0,0-8.16-6.68c-5-1.45-10.37,0-15.43-1.08-5.59-1.19-10.36-5.42-16.08-5.77a36.31,36.31,0,0,0,7,16.89,9.86,9.86,0,0,0,2.65,2.62,10.25,10.25,0,0,0,4.74,1.12c4.77.26,9.76-.16,14.15,1.75,4.86,2.11,8.2,6.74,12.91,9.17" transform="translate(0 0)"/><line class="cls-6" x1="196.03" y1="212.1" x2="187.89" y2="317.25"/><line class="cls-6" x1="106.32" y1="450.67" x2="109.25" y2="353.14"/><path class="cls-6" d="M98.86,141.27a12.26,12.26,0,0,0-1.57,2.4,4.93,4.93,0,0,1-3,2q1.13-4.33,2.6-8.56c.28-.78.74-1.7,1.57-1.72" transform="translate(0 0)"/><path class="cls-6" d="M133,285.24c7.08-.12,13.45-4.13,20.32-5.84a48.63,48.63,0,0,1,8-1.19c6-.49,12.44-.35,17.45,3a7.42,7.42,0,0,1,2.94,3.29c.29.77.39,1.61.65,2.39,1,2.9,4.75,4.42,6.83,6.67" transform="translate(0 0)"/></g></g></g></g></g></svg>