<svg xmlns="http://www.w3.org/2000/svg" xmlns:xlink="http://www.w3.org/1999/xlink" viewBox="0 0 450 492.31"><defs><style>.cls-1,.cls-5{fill:none;}.cls-2{fill:#c69c6d;}.cls-3{fill:#cc9;}.cls-4{clip-path:url(#clip-path);}.cls-5{stroke:#231f20;stroke-miterlimit:10;stroke-width:1.07px;}</style><clipPath id="clip-path" transform="translate(0 0)"><rect class="cls-1" width="450" height="492.31"/></clipPath></defs><g id="Layer_2" data-name="Layer 2"><g id="Layer_1-2" data-name="Layer 1"><path class="cls-2" d="M117.93,446.16a162.17,162.17,0,0,0,61.77,12.17c14.26,0,28.46-1.92,42.5-4.42,12.64-2.25,25.27-5,37.17-9.82C300.72,427.33,329.8,384,329.66,339.4c0-10.21-1.7-21-8.09-28.93s-16.37-11.83-26.21-14.24c-10.76-2.63-22.33-3.77-32.73,0-14.19,5.19-23.7,18.57-30.4,32.11s-11.66,28.19-21.07,40c-15.47,19.42-40.73,28.34-65.26,32.15S96.22,404,72,409.57c-5.16,1.18-10.71,2.94-13.59,7.38-4.08,6.3-.56,15.21,5.47,19.68S114.64,446.53,122,448" transform="translate(0 0)"/><path class="cls-3" d="M189.74,88.26c7.69-3.12,16.21-3.68,24.47-3A68.12,68.12,0,0,1,237,90.91c16.38,7.48,28.7,22.57,45.73,28.45,7.24,2.49,15,3.2,22.12,6.08,7.55,3.05,13.9,8.4,20.06,13.73,7.24,6.27,14.62,13,18.31,21.79,3.08,7.37,3.31,15.65,2.34,23.58-1.34,10.84-5,21.63-11.94,30-9.14,11-22.94,16.9-36.36,21.88-11.85,4.41-23.94,8.47-36.48,10s-25.7.29-37-5.4c-7.21-3.64-13.41-9-19.4-14.38-5-4.48-9.88-9.15-13.27-14.91-7.3-12.42-6.39-27.77-6.49-42.18-.06-8.24-.68-16.74-3.42-24.58-3.37-9.64-9.46-12.87-16.12-19.73C152.86,112.66,179,92.6,189.74,88.26Z" transform="translate(0 0)"/><g id="Green_Tea_Plant" data-name="Green Tea Plant"><g class="cls-4"><g class="cls-4"><path class="cls-5" d="M300.84,158.39c-3.06,2.57-6.13,5.14-9.18,7.72-12.31,10.45-24.51,21.47-33.12,35.29-4.41,7.07-6.62,14.72-10.08,22.12a160.88,160.88,0,0,0-9.88,27.32,10.21,10.21,0,0,1-1.49,3.69,13.8,13.8,0,0,1-1.94,1.88,16.12,16.12,0,0,0-5.21,10.16,42.66,42.66,0,0,1-8-21,81.55,81.55,0,0,1-.15-9.89c.43-15.1,1.3-30.32,5.23-44.91a96.11,96.11,0,0,1,4.14-12.19,76.81,76.81,0,0,1,14.24-22.42c2.42-2.64,3.68-5.76,5.94-8.47a85.64,85.64,0,0,1,9.15-9.12A116.52,116.52,0,0,1,305,114.25c23.75-7,49.21-7.13,73.49-2.31C351,124.65,324,138.94,300.84,158.39Z" transform="translate(0 0)"/><path class="cls-5" d="M202.13,346.73c.38-4.89.75-9.94-.82-14.59-1.32-3.93-3.94-7.27-6.67-10.39a117.64,117.64,0,0,0-83.21-39.5c13.31-14.07,36-11.33,55-7.51,3.59.72,7.25,1.47,10.38,3.36,3.64,2.19,6.23,5.71,8.91,9a121.11,121.11,0,0,0,24.84,23.11,650.35,650.35,0,0,0,11.07-94.86c.44-10.15.61-20.49-2.18-30.25s-8.27-18.22-14.29-26.22c-23.77-31.62-55.9-55.74-87.58-79.42-13.27-9.91-26.82-20-42.5-25.32C51.38,46.07,24.78,49.46,1.44,40.41,32.31,27.72,67.1,21.28,99.18,30.46c28.22,8.07,57.15,22.73,68.26,52.6,5.26,14.16,26.8,14.55,33.31,33.06l6.89,25.14c26,20.3,22,40,17.93,43.36" transform="translate(0 0)"/><path class="cls-5" d="M186.62,492a36.4,36.4,0,0,0-5-19.56c-2.76-4.68-6.53-8.67-10-12.86a121.26,121.26,0,0,1-15.24-23.54c-2.4-4.88-4.52-10.2-3.95-15.61s4.66-10.81,10.1-11.08a16,16,0,0,1,6.61,1.51,72.22,72.22,0,0,1,16.65,9.48c3.87,2.94,7.51,6.32,12,8.19,6,2.5,12.77,2,19.25,1.48,5-.41,10-.82,14.66-2.41,7-2.35,13.47-7.27,20.82-6.79a4.41,4.41,0,0,1,3.34,1.38,5.2,5.2,0,0,1,.74,2.89c.17,3.4.34,6.81.52,10.21.19,3.89.35,8-1.46,11.45-1.67,3.18-4.76,5.32-7.78,7.25-10.1,6.46-20.84,12.05-30,19.76-5.59,4.69-11.8,12.25-16,18.25" transform="translate(0 0)"/><path class="cls-5" d="M155.33,414.18c-1.32-5.22-4.94-9.62-9.16-13s-9.07-5.8-13.76-8.45A175,175,0,0,1,98.15,367.4a2.65,2.65,0,0,1-1-1.51c-.13-1,.92-1.82,1.87-2.28,6.82-3.27,14.8-2.65,22.28-1.55,10.51,1.55,21.05,4,30.46,8.89s17.7,12.61,21.73,22.45c2.8,6.86,3.43,14.39,5.07,21.62,4.8-6.26,9.71-12.62,16.16-17.15s14.82-7,22.35-4.71c-7.77,11.25-26.48,11.08-33.09,23l-1.69-1.06" transform="translate(0 0)"/><line class="cls-5" x1="195.8" y1="427.58" x2="197.52" y2="405.57"/><line class="cls-5" x1="202.13" y1="346.73" x2="198.3" y2="395.69"/><path class="cls-5" d="M206.85,430.4a233.13,233.13,0,0,1,2.65-30.54" transform="translate(0 0)"/><path class="cls-5" d="M161.35,68.72A25.89,25.89,0,0,0,165.13,74c8.57,9.23,23.39,11.61,30.13,22.25,1.08,1.72,2,3.64,3.53,4.91,1.4,1.12,3.21,1.61,4.68,2.62,5.55,3.84,4.08,13,8.79,17.82,1.67,1.71,4,2.73,5.47,4.64,2.69,3.51,1.45,8.49,1.71,12.91.43,7.17,5,13.31,7.83,19.93a41.22,41.22,0,0,1,3,20" transform="translate(0 0)"/><path class="cls-5" d="M289.54,166c0,2.24,0,4.48,0,6.72,0,7.88-.36,16.65-5.91,22.25-6.26,6.32-16.9,6.24-23.45,12.24" transform="translate(0 0)"/><path class="cls-5" d="M253.38,128.08c8.34-20.2,23.29-37.12,40.35-50.77S330,53,349.2,42.56c6.22-3.4,12.46-6.79,18.91-9.72,25.06-11.35,52.84-15.3,80.31-16.71A85.81,85.81,0,0,0,410.85,1.4a116.56,116.56,0,0,0-26.47-.22C333.55,5.83,284.23,33.65,258.17,77.55a49.51,49.51,0,0,0-5.4,11.68c-1.54,5.49-1.47,11.29-1.32,17,.25,9.77-.16,16.47.48,26.22" transform="translate(0 0)"/><path class="cls-5" d="M253.38,128.08A79.33,79.33,0,0,1,249.12,140L237,167" transform="translate(0 0)"/><path class="cls-5" d="M230.43,173.34c-.6-5.86,1.56-11.58,3.27-17.21,7-22.95,6.89-47.37,6.74-71.35a98.33,98.33,0,0,0-.43-10.3c-.31-2.8-.86-5.58-1.17-8.38-1-9.4.71-19.07-1.51-28.26,7.07,7,7.8,17.92,9.37,27.75,2,12.24,4,15.21,5.23,27.55" transform="translate(0 0)"/><path class="cls-5" d="M218.62,313.19c-9.06,22.2-10.28,62.66-9.35,79.17" transform="translate(0 0)"/><path class="cls-5" d="M252.68,218.8a69.29,69.29,0,0,0-3.91,15.54c-.6,4.5-.78,9.15-2.54,13.34-2.81,6.68-9.18,11.15-13,17.27-2.66,4.2-4.06,9.06-5.42,13.84-3.21,11.21-8.66,22.74-9.15,34.4" transform="translate(0 0)"/><path class="cls-5" d="M213.46,356a39.84,39.84,0,0,1,5.68-18.86,20,20,0,0,1,4.33-6.32c1.41-1.21,3.14-2,4.5-3.3,1.19-1.12,2.05-2.58,3.21-3.74a18.77,18.77,0,0,1,4.56-3c6.92-3.71,14.26-7.53,22.11-7.26-4.18,5.1-8.5,10.22-13.7,14.29-8.5,6.63-11.91,13.9-16.85,21.95s-7.46,18.88-10.67,27.81c-.77,2.13-3.6,16.23-6.12,14.79-2.86-1.62,1-15.73,1.21-18.32Z" transform="translate(0 0)"/></g></g></g></g></g></svg>