<svg xmlns="http://www.w3.org/2000/svg" viewBox="0 0 284.76 310.78"><defs><style>.cls-1{fill:none;stroke:#231f20;stroke-miterlimit:10;}</style></defs><g id="Layer_2" data-name="Layer 2"><g id="Layer_1-2" data-name="Layer 1"><path class="cls-1" d="M190.2,100.07l-5.8,4.87c-7.76,6.59-15.45,13.54-20.88,22.26-2.79,4.46-4.18,9.28-6.36,14a101.58,101.58,0,0,0-6.23,17.23,6.53,6.53,0,0,1-.94,2.33,9.22,9.22,0,0,1-1.23,1.19,10.17,10.17,0,0,0-3.29,6.4,26.89,26.89,0,0,1-5-13.25,50,50,0,0,1-.1-6.24c.27-9.53.82-19.13,3.3-28.33a61.59,61.59,0,0,1,2.61-7.69,48.6,48.6,0,0,1,9-14.14C156.76,97,157.55,95,159,93.3a55.93,55.93,0,0,1,5.77-5.75,73.52,73.52,0,0,1,28.06-15.32c15-4.39,31-4.5,46.35-1.46C221.85,78.79,204.81,87.8,190.2,100.07Z"/><path class="cls-1" d="M127.94,218.87c.24-3.09.47-6.27-.52-9.21a20.19,20.19,0,0,0-4.21-6.55A74.19,74.19,0,0,0,70.72,178.2c8.4-8.88,22.72-7.15,34.69-4.74a20.06,20.06,0,0,1,6.55,2.12c2.29,1.38,3.93,3.6,5.61,5.68a76.68,76.68,0,0,0,15.68,14.58,410.72,410.72,0,0,0,7-59.84c.27-6.4.38-12.92-1.38-19.08s-5.22-11.49-9-16.54c-15-19.94-35.26-35.15-55.25-50.09-8.36-6.25-16.91-12.6-26.8-16-14.95-5.1-31.72-3-46.44-8.67,19.47-8,41.41-12.06,61.65-6.28,17.79,5.09,36.05,14.34,43.05,33.18,3.32,8.94,16.91,9.18,21,20.85l4.35,15.86c16.43,12.8,13.86,25.2,11.31,27.35"/><path class="cls-1" d="M118.15,310.5A22.9,22.9,0,0,0,115,298.17a64.75,64.75,0,0,0-6.3-8.11,76.13,76.13,0,0,1-9.61-14.86c-1.52-3.08-2.85-6.43-2.5-9.84s2.94-6.82,6.37-7a10,10,0,0,1,4.18.95,45.88,45.88,0,0,1,10.5,6c2.44,1.86,4.74,4,7.57,5.17,3.78,1.57,8,1.27,12.14.93a38.3,38.3,0,0,0,9.24-1.52c4.41-1.48,8.5-4.59,13.14-4.28a2.81,2.81,0,0,1,2.11.87,3.25,3.25,0,0,1,.46,1.82l.33,6.44c.12,2.46.22,5-.92,7.23-1,2-3,3.35-4.91,4.57-6.37,4.07-13.14,7.6-18.94,12.46a64.22,64.22,0,0,0-10.06,11.51"/><path class="cls-1" d="M98.41,261.41a15.8,15.8,0,0,0-5.77-8.18A65.76,65.76,0,0,0,84,247.9a110.61,110.61,0,0,1-21.61-16,1.75,1.75,0,0,1-.63-1c-.08-.66.59-1.15,1.19-1.44,4.29-2.06,9.33-1.67,14-1,6.63,1,13.27,2.5,19.21,5.61s11.16,7.95,13.7,14.15c1.77,4.33,2.17,9.08,3.21,13.64,3-3.95,6.12-8,10.19-10.82s9.34-4.44,14.09-3c-4.9,7.1-16.7,7-20.87,14.54l-1.06-.67"/><line class="cls-1" x1="123.94" y1="269.86" x2="125.03" y2="255.98"/><line class="cls-1" x1="127.94" y1="218.87" x2="125.52" y2="249.75"/><path class="cls-1" d="M130.91,271.64a148,148,0,0,1,1.67-19.26"/><path class="cls-1" d="M102.21,43.51a16.34,16.34,0,0,0,2.39,3.33c5.41,5.83,14.75,7.33,19,14a11.56,11.56,0,0,0,2.23,3.1c.88.7,2,1,3,1.65,3.5,2.42,2.58,8.19,5.54,11.24,1.06,1.08,2.53,1.72,3.45,2.93,1.7,2.21.92,5.35,1.08,8.14.27,4.52,3.18,8.4,4.94,12.57a26,26,0,0,1,1.9,12.63"/><path class="cls-1" d="M183.07,104.84v4.24c0,5-.23,10.5-3.73,14-4,4-10.66,3.93-14.8,7.72"/><path class="cls-1" d="M160.26,81c5.26-12.74,14.69-23.42,25.45-32s22.9-15.31,35-21.92c3.93-2.15,7.86-4.29,11.93-6.13,15.8-7.16,33.33-9.66,50.66-10.55A54.38,54.38,0,0,0,259.59,1,74.6,74.6,0,0,0,242.89.9c-32.06,2.94-63.17,20.49-79.61,48.18a31.42,31.42,0,0,0-3.41,7.37A36.25,36.25,0,0,0,159,67.16c.16,6.17-.09,10.39.31,16.54"/><path class="cls-1" d="M160.26,81a50.09,50.09,0,0,1-2.68,7.51l-7.66,17.05"/><path class="cls-1" d="M145.78,109.5c-.37-3.69,1-7.31,2.07-10.85,4.4-14.48,4.34-29.88,4.25-45a64.1,64.1,0,0,0-.27-6.5c-.2-1.77-.55-3.51-.74-5.28-.65-5.93.45-12-1-17.83,4.46,4.41,4.92,11.31,5.9,17.5,1.24,7.73,2.54,9.6,3.31,17.38"/><path class="cls-1" d="M138.34,197.71c-5.72,14-6.49,39.52-5.9,49.94"/><path class="cls-1" d="M159.82,138.17a43.69,43.69,0,0,0-2.47,9.81c-.38,2.84-.49,5.77-1.6,8.41-1.77,4.21-5.79,7-8.23,10.89A33.61,33.61,0,0,0,144.1,176c-2,7.07-5.46,14.35-5.76,21.7"/><path class="cls-1" d="M135.08,224.69a33.44,33.44,0,0,1,.82-5.38,33.93,33.93,0,0,1,2.76-6.52,12.83,12.83,0,0,1,2.73-4c.89-.77,2-1.28,2.84-2.08s1.29-1.63,2-2.36a11.9,11.9,0,0,1,2.87-1.92c4.37-2.34,9-4.74,14-4.58a57.2,57.2,0,0,1-8.64,9c-5.36,4.18-7.51,8.77-10.63,13.84s-4.7,11.91-6.73,17.54c-.49,1.35-2.27,10.24-3.86,9.34-1.8-1,.6-9.93.76-11.56Z"/></g></g></svg>