<svg xmlns="http://www.w3.org/2000/svg" viewBox="0 0 335.53 300.74"><defs><style>.cls-1{fill:none;stroke:#000;stroke-miterlimit:10;}</style></defs><g id="Layer_2" data-name="Layer 2"><g id="Layer_1-2" data-name="Layer 1"><path class="cls-1" d="M11.1,192.1c2.53-2.49,1-6.68-.13-10a35.54,35.54,0,0,1-1.2-17.52c1.18-6.54,4.05-12.64,6.9-18.65,6-12.75,12.09-25.55,20-37.19s18-22.16,30.37-28.87c9.26-5,19.79-7.91,27.9-14.63,2.05-1.69,3.91-3.61,6-5.33,10.76-9,25.44-11.61,37.83-18.24,4.45-2.38,8.73-5.34,13.69-6.29s10.93.88,12.76,5.58c1.07,2.74.53,5.82-.19,8.67a80.24,80.24,0,0,1-5.86,16,20.7,20.7,0,0,1-5,7c-2.27,1.88-5.14,2.84-7.94,3.77-10.33,3.41-20.69,6.83-31.34,9.09a76.13,76.13,0,0,0-11.38,2.87,61.12,61.12,0,0,0-9.82,5.2L81,101.29"/><path class="cls-1" d="M145.39,76.41c-.78.1.3,1.15,1.07,1,5-1.15,9.85-2.78,14.71-4.35A714.63,714.63,0,0,1,240,52.43c17-3.43,34.43-6.24,51.67-4.25,3.33.39,6.72,1,9.62,2.66s5.25,4.65,5.34,8c.11,3.58-2.36,6.83-5.41,8.71S294.59,70.2,291.1,71a286.21,286.21,0,0,0-59,20.62c-6.66,3.18-13.19,6.62-19.84,9.82q-11.15,5.37-22.69,9.84c-5.53,2.15-11.69,4.14-17.27,2.13"/><path class="cls-1" d="M329.5,83.43c-1.22,4.22-19.77,13.26-22.47,14.26s-5.11,3.26-7.85,4.54c-2.55,1.18-5.39,1.53-8.13,2.16-15.15,3.51-26.65,15.55-40.25,23.08-9.74,5.39-20.61,8.48-30.39,13.76a152,152,0,0,0-15.89,10.38l-10.9,7.8c-3.94,2.81-8,5.72-10.59,9.77"/><path class="cls-1" d="M171.75,113.28c8.24,2.9,15.81-1.52,24-4.47s17.33-4.33,25-8.6c25.9-14.5,54-24.84,82.89-31.72,6.22-1.48,12.93-2.77,18.88-.42s10.26,9.85,7,15.36"/><path class="cls-1" d="M304.4,99.27c2.07-3.53,7.93-2.8,10.34.51s2.19,7.84,1.21,11.82a15.85,15.85,0,0,1-1.77,4.63,18.45,18.45,0,0,1-5.05,4.87c-18,13.13-39.1,21.38-57.24,34.29-1.75,1.25-3.48,2.54-5.33,3.65-3,1.83-6.34,3.14-9.51,4.71-2.53,1.25-5,2.67-7.42,4.08L220.69,173c-7.27,4.21-14.7,8.55-20.14,15-4.66,5.51-7.69,12.36-12.93,17.32"/><path class="cls-1" d="M272.81,144.56c3.31-2.55,8.41,1.38,8.44,5.55s-3,7.7-6,10.63c-11.52,11.38-24.9,20.67-38.42,29.59-15.26,10.07-30.9,19.81-44.1,32.46-6.42,6.14-12.21,12.92-18.44,19.26a190.08,190.08,0,0,1-47.6,35.25,48.42,48.42,0,0,1-12.77,5c-3,.59-6.11.69-9,1.66-7.34,2.44-11.74,9.76-15.5,16.53"/><path class="cls-1" d="M.36,142.53c5-5.24,10.19-10.7,12.64-17.53,1.1-3.08,1.61-6.33,2.44-9.49a81.81,81.81,0,0,1,6-15.07A308.76,308.76,0,0,1,49.13,54.35a53.84,53.84,0,0,1,6-7.32c11.11-10.72,28.45-11.28,42-18.64,4.39-2.39,8.36-5.47,12.56-8.17C127.89,8.6,149.75,4.69,171,1c4.17-.73,9.18-1.17,11.94,2.05a9.64,9.64,0,0,1,1.93,5.5c.56,6.59-2,13.17-6,18.44s-9,8.5-14.46,12.26"/><path class="cls-1" d="M165.83,44.16A969.87,969.87,0,0,1,274.81,32c11.79-.65,24.74-.73,33.94,6.68a10.3,10.3,0,0,1,3,3.52,9.42,9.42,0,0,1,.76,3.9c.08,6.23-.47,9.61-5.89,12.7"/><path class="cls-1" d="M306.64,58.84c4.59-3.57,9.06-5.58,14.86-5.75a11.84,11.84,0,0,1,4,.44c2.38.79,4.18,2.7,5.89,4.54a15.38,15.38,0,0,1,2.6,3.42c1.08,2.18,1.06,4.72,1,7.15a16.16,16.16,0,0,1-.87,6c-.77,1.86-1.5,3.33-3.51,3.45"/><path class="cls-1" d="M293.15,131.31c-1.23,1,2.2,7.07-11.79,13.31-.79.36-1.63.56-2.45.84"/><path class="cls-1" d="M293.15,131.31c.11-.36-.1-.37,0,0a1.34,1.34,0,0,1-.32,1"/><path class="cls-1" d="M316.65,107.39c1.58-.65,15.51-9,12.61-22.39"/></g></g></svg>