<svg xmlns="http://www.w3.org/2000/svg" viewBox="0 0 105.71 126.07"><defs><style>.cls-1{fill:none;stroke:#000;stroke-miterlimit:10;}</style></defs><g id="Layer_2" data-name="Layer 2"><g id="Layer_1-2" data-name="Layer 1"><path class="cls-1" d="M39.45,35.09c-.24.33-.59.69-1,.6s-.51-.38-.66-.66a69.75,69.75,0,0,1-7.06-20.15c-.33-1.8-.75-3.85-2.34-4.74A130.73,130.73,0,0,0,20.05,34c-1.6,6.55-1.24,13.18-5.23,18.67C5.85,65,.2,79.31.51,94.75c.14,6.9,1.52,14.11,5.9,19.45,3.47,4.22,8.52,6.88,13.71,8.6,11.28,3.74,23.66,3.45,35.19.54,14.42-3.65,28-11.54,37.18-23.21A60.08,60.08,0,0,0,104.1,51.74a43.41,43.41,0,0,0-4.37-12.69c-1.39-2.49-3.56-4.38-4.24-7.2-1-4.34-.06-9.9-.11-14.36q-.09-7-.36-14.06C95,2.34,94.78,1,93.78.61A77.27,77.27,0,0,0,87,11c-1.43,2.66-2.78,9-5,10.87s-5.88.49-8.56.64a44.22,44.22,0,0,0-12,2.74C50.89,29,41,34.43,31.16,39.84"/><path class="cls-1" d="M43.34,62.3a3.21,3.21,0,0,1,2.07-3.66,1.42,1.42,0,0,1,.84-.06,1,1,0,1,1-1.19,1.13,3.15,3.15,0,0,1,1.72.62A1.1,1.1,0,0,1,46.86,62c-.73.54-1.63-.4-2-1.2a.94.94,0,0,1,1.5,0,2.42,2.42,0,0,1-.94,1.32c-.48.26-1.26,0-1.25-.56h1.74a.6.6,0,0,1-1,.35"/><path class="cls-1" d="M75.78,59.45A1.84,1.84,0,0,1,75,57a1.66,1.66,0,0,1,2.51-.3A1.49,1.49,0,0,1,76.89,59a.94.94,0,0,1-.62,0,.86.86,0,0,1,.11-1.53.93.93,0,0,1,1,1.24,1,1,0,0,1-1.67.11,1.11,1.11,0,0,1,.6-1.61c.66-.19,1.44.46,1.25,1.11s-1.41.6-1.44-.08"/><path class="cls-1" d="M62.46,76.31a11.92,11.92,0,0,0-7-.19,7.78,7.78,0,0,0-3.79,2.23,4.6,4.6,0,0,0-1.06,4.15,4.86,4.86,0,0,0,3.2,3,11.43,11.43,0,0,0,4.55.35,10.51,10.51,0,0,0,6-2c1.64-1.38,2.41-4,1.18-5.74-1-1.41-2.87-1.84-4.58-2.1"/><path class="cls-1" d="M57.38,79.37v3.22"/><path class="cls-1" d="M61.72,79.74A3.74,3.74,0,0,0,62,82.27"/><path class="cls-1" d="M49.71,95.17c.67,2.16,3.12,3.33,5.38,3.4A9.5,9.5,0,0,0,63.41,94"/><path class="cls-1" d="M38.23,53.46a12.57,12.57,0,0,0,.2,14.66A4.76,4.76,0,0,0,40,69.52a4.8,4.8,0,0,0,3.09.22,13.61,13.61,0,0,0,7.25-4.29,10.43,10.43,0,0,0,2.91-5.85,6.11,6.11,0,0,0-2.56-5.78C46.28,51.11,42.36,47.78,38.23,53.46Z"/><path class="cls-1" d="M67.78,51.91c-2.36,2.86-2.74,7.34-.5,10.29,2,2.64,5.59,3.63,8.92,3.58,4-.06,8.39-1.84,9.63-5.61A8.06,8.06,0,0,0,86,56.12C84.31,47.15,73.41,45.09,67.78,51.91Z"/><path class="cls-1" d="M42.38,77.59c-1.4,2.82-1.17,6.54,1,8.77,3,3,7.84,2.3,12,2,3.69-.25,7.46,0,11-1.07s7-3.7,7.47-7.36-2.26-7.38-5.69-9.06C60.89,67.28,46.31,69.68,42.38,77.59Z"/><path class="cls-1" d="M43.88,93.53a5.93,5.93,0,0,0,1.18,4.88,12.85,12.85,0,0,0,12.45,5.26c5.24-.89,9.29-4.91,13-8.74,1-1.06,2.13-2.44,1.68-3.84-.51-1.56-2.53-1.92-4.17-2a9.86,9.86,0,0,0-3.83.31,14.45,14.45,0,0,0-3,1.78,15.22,15.22,0,0,1-12,2C47.36,92.65,45.15,89.25,43.88,93.53Z"/><path class="cls-1" d="M31.21,46.37c-4,.48-7.63,3-10.14,6.23a37.89,37.89,0,0,0-5.44,10.88C10.44,78.12,8,94.92,15,108.78a17.16,17.16,0,0,0,4.13,5.58c2.77,2.3,6.46,3.12,10,3.65,9.91,1.47,20.17,1.28,29.8-1.5s18.59-8.26,24.75-16.17C92.46,89.1,94.81,74.25,95.94,60.06c.47-5.84.66-12.15-2.52-17.07-3.3-5.1-9.51-7.5-15.5-8.52-19.82-3.36-40,5.28-56,17.44"/></g></g></svg>