<svg xmlns="http://www.w3.org/2000/svg" xmlns:xlink="http://www.w3.org/1999/xlink" viewBox="0 0 315.39 448.48"><defs><style>.cls-1,.cls-4{fill:none;}.cls-2{fill:#d74a2d;}.cls-3{clip-path:url(#clip-path);}.cls-4{stroke:#231f20;stroke-miterlimit:10;stroke-width:2.36px;}</style><clipPath id="clip-path" transform="translate(0 0)"><rect class="cls-1" width="315.4" height="448.48"/></clipPath></defs><g id="Layer_2" data-name="Layer 2"><g id="Layer_1-2" data-name="Layer 1"><path class="cls-2" d="M65.19,63.14c-22,24.21-23.51,61.48-14,92.81,7.26,24,20.25,47.93,15.52,72.5-2.19,11.4-8.07,21.69-12.34,32.48-8.53,21.54-9.84,48.26,5.14,65.93,17.73,20.91,51.4,20.54,75.68,7.8a99.91,99.91,0,0,0,44-46.4c4.69-10.22,8.07-21.84,16.95-28.73,8.38-6.5,19.9-7.35,29-12.85,16.92-10.28,20.5-33,21.28-52.77.9-22.83.27-46.32-8.21-67.54s-26.2-40-48.68-44.07c-14.9-2.71-33.82-.63-41.5-13.68-3.23-5.5-3.26-12.26-5.31-18.29a28.19,28.19,0,0,0-52.64-2" transform="translate(0 0)"/><g id="Artwork_15" data-name="Artwork 15"><g class="cls-3"><g class="cls-3"><path class="cls-4" d="M219.25,268.19c13.57-10.35,34.69-3.21,44.62,10.67s11.42,32,11.5,49a413.12,413.12,0,0,1-17.31,120.25" transform="translate(0 0)"/><path class="cls-4" d="M212.87,220.87c3.24,13.3,6.51,27,4.42,40.54-1,6.42-3.4,13-8.42,17.08-3.2,2.62-7.19,4.05-11.1,5.43l-17.07,6a25.71,25.71,0,0,1-7.67,1.87c-6.27.24-11.75-3.94-16.62-7.89-3.33-2.71-6.76-5.55-8.64-9.4-2.06-4.23-2-9.13-1.91-13.83l.42-19.7" transform="translate(0 0)"/><path class="cls-4" d="M128.9,234.3a124.08,124.08,0,0,1-50.51,21.06c-6.25,1.09-13.3,1.5-18.29-2.4-4.28-3.35-5.91-9-7.09-14.29q-2.09-9.33-3.32-18.82c-.35-2.63-.46-5.75,1.59-7.43" transform="translate(0 0)"/><path class="cls-4" d="M86.93,174.19c-3.28,12.53-16.39,20.05-29.09,22.6-8.79,1.76-18.09,1.79-26.56-1.16a49,49,0,0,1-18.7-12.43c-4-4.13-7.51-8.92-9.16-14.43S2.14,157,5.38,152.2" transform="translate(0 0)"/><path class="cls-4" d="M70.66,113.58c-12.11,7.51-22,20.33-36.18,21.7-9.18.89-18.43-3.68-24.33-10.79S1.48,108,1.2,98.81C.37,71,20.7,46.74,43.67,31,60.53,19.52,79.23,11,97.83,2.61" transform="translate(0 0)"/><path class="cls-4" d="M100.32.93A46.7,46.7,0,0,0,82.51,33.62a46.66,46.66,0,0,0,12.2,35.16c3.51,3.76,7.86,7,12.92,7.9,6.68,1.17,13.31-2,19.18-5.35C137.71,65,148.51,56.57,152,44.48c-.46,13.42,11.45,25.27,24.73,27.27s26.82-4.35,36.12-14c-2,8.89-3.38,19.61,3.27,25.82,2.7,2.51,6.31,3.78,9.85,4.82a127.36,127.36,0,0,0,40.06,5.14,44.52,44.52,0,0,0,10.75,34.79c-11.44,1.62-17.08,14.74-19,26.14-1.25,7.49-1.76,15.44,1.17,22.45s10.17,12.7,17.69,11.62a40.95,40.95,0,0,0,29.95,65.22c2.2.16,4.63.07,6.31-1.38s1.79-4.67-.25-5.54" transform="translate(0 0)"/><path class="cls-4" d="M178.67,106c-12.76,1.6-25.67,3.91-37.07,9.86s-21.2,16.09-24,28.64c-2,9.16-.2,18.74,2.59,27.69,2.94,9.42,7.45,19.11,15.93,24.16,6,3.57,13.2,4.36,20.15,4.12,15.49-.53,31.29-6.28,41.52-17.93s13.7-29.65,6.18-43.21c-4.68-8.43-13-14.44-22.12-17.64s-18.92-3.8-28.55-3.24" transform="translate(0 0)"/><path class="cls-4" d="M118.53,256.35a53.48,53.48,0,0,0,.85,18.32,12.47,12.47,0,0,0,11,9.63c6.68.64,13.41.38,20.06-2" transform="translate(0 0)"/></g></g></g></g></g></svg>