<svg xmlns="http://www.w3.org/2000/svg" xmlns:xlink="http://www.w3.org/1999/xlink" viewBox="0 0 95 250.94"><defs><style>.cls-1,.cls-3{fill:none;}.cls-2{clip-path:url(#clip-path);}.cls-3{stroke:#000;stroke-miterlimit:10;stroke-width:0.81px;}</style><clipPath id="clip-path" transform="translate(0 0)"><rect class="cls-1" width="95" height="250.94"/></clipPath></defs><g id="Layer_2" data-name="Layer 2"><g id="Layer_1-2" data-name="Layer 1"><g id="Artwork_3" data-name="Artwork 3"><g class="cls-2"><g class="cls-2"><path class="cls-3" d="M52.75,62.54l-.26,14.13A46.19,46.19,0,0,0,52.75,62.54Z" transform="translate(0 0)"/><path class="cls-3" d="M48.53,248.34,50,168.76a17.89,17.89,0,0,1,.92-2c1.34-2.37,3.53-2.86,5.34-4.68,2.35-2.35,1.6-6.22,1.89-9.53.2-2.3,1-4.52,1.17-6.82.38-4.7-1.74-9.56-.26-14,1.65-5,7.33-7.92,8.73-13a102.63,102.63,0,0,0-9.7,9c-3.2,3.22-6.57,6.76-7.28,11.25-.15,1-.18,2-.32,2.93l.14-7.46a12.94,12.94,0,0,0,3.3-4.87c.38-1.29.36-2.66.63-4a19.59,19.59,0,0,1,1.71-4.39c3.77-8,6.43-16.4,9.07-24.81.34-1.08.4-2.68-.71-2.91a27.36,27.36,0,0,1-4.77,11.23,31.83,31.83,0,0,1-4.05,4.55,16.25,16.25,0,0,0-2.53,2.65c-1.52,2.23-1.57,5.11-2.38,7.69l.81-44.46m-9.61,35c.91,11.82-.51,23.7-.36,35.54-.91-2-2.11-4-4.09-5S33.09,140,31,139.08a10.64,10.64,0,0,1-3.6-2.81c-3.3-3.65-5.94-8.2-10.36-10.34-1.55-.76-3.25-1.17-4.79-2-4.16-2.13-6.47-6.6-9.66-10-.37-.39-.94-.8-1.4-.51s-.33,1-.13,1.51q1.26,3.23,2.5,6.43a16.73,16.73,0,0,0,1.92,3.94A22.1,22.1,0,0,0,8,128.07,31.23,31.23,0,0,1,15.38,139c.85,2.23,1.46,4.68,3.16,6.34.71.69,1.57,1.22,2.22,2a16.43,16.43,0,0,1,1.93,3.78,14.26,14.26,0,0,0,6.63,6.25c1.56.78,13.5,5.38,15.17,5.88-.47,9.94-4-7.26.81,6.45.67,1.89.19,19.57,1.61,21-.37,3.76-.8,4-.8,15.31,0,15.59-2.13,29.52,0,45l.3-55.29.15-.68M47.82,66c-.89,12.61-.82,12.82-1.71,25.43" transform="translate(0 0)"/><path class="cls-3" d="M43.57,107c.11-1.21-1.08-2.16-2.25-2.49a24.63,24.63,0,0,1-3.55-.77c-2.16-.94-3.12-3.57-5.15-4.77-1.11-.66-2.46-.83-3.56-1.51a7.73,7.73,0,0,1-2-2.06c-3.92-5.4-5.64-12-7.29-18.51a28.32,28.32,0,0,1-1-5.38A1.53,1.53,0,0,1,19,70.49c.41-.5,1.2-.32,1.8-.09a53,53,0,0,1,19.9,13.44,25.39,25.39,0,0,1,4.49,6.28c3,6.43,1.55,14.46-2.83,20.06" transform="translate(0 0)"/><path class="cls-3" d="M58.92,53a16.81,16.81,0,0,1-1.17,4.65,7,7,0,0,1-1,2,8.78,8.78,0,0,1-1.56,1.42c-6.3,5.09-8.16,13.74-10,21.62a4.3,4.3,0,0,1-.89,2c-1.07,1.12-3,.74-4.25-.17s-2.19-2.23-3.5-3a2.81,2.81,0,0,0-1.33-.47" transform="translate(0 0)"/><path class="cls-3" d="M17.89,75.33c-5.06-1.47-12.75-3.07-16.61-6.66a2.44,2.44,0,0,1-.86-1.34,2,2,0,0,1,.85-1.8c1.61-1.3,4-.91,6-1.39,2.94-.71,5-3.22,6.87-5.64.8-1.07,1.63-2.29,1.46-3.61-.23-1.72-2-2.73-3-4.16-1.28-1.88-1.44-4.8-3.56-5.63a12.72,12.72,0,0,0-2.91-.31c-1-.13-2-.83-2-1.8.06-.8.86-1.32,1.62-1.59A7,7,0,0,1,9,41.09c1.52.22,2.94.94,4.47,1s3.27-1.12,3-2.63c-.18-1.2-1.47-1.92-1.88-3.07a2.81,2.81,0,0,1,0-1.6c.61-2.4,3.58-3.51,6-3" transform="translate(0 0)"/><path class="cls-3" d="M58.93,55.31c-3.29-1.42-6.89-2.22-10.13-.9-3.67,1.51-6,5.41-9.65,6.87-1.23.49-3,.45-3.45-.8a2.68,2.68,0,0,1-.05-1.29c.28-2.06.85-4.15.43-6.19a8.6,8.6,0,0,0-3.75-5.12,21.62,21.62,0,0,0-6-2.54c-3.36-1-6.93-1.92-9.45-4.37s-3.34-7-.69-9.32c3.91-3.41,15.24.89,11-7.64C24,17.66,21,11.17,21.67,3.88a3.3,3.3,0,0,1,1.15-2.64c1.21-.78,2.76.14,3.89,1,5.48,4.32,10.81,8.84,15.94,13.57,1.13,1,2.91,2.1,4,1a3.2,3.2,0,0,0,.69-1.3A38.72,38.72,0,0,1,53.65,4.21,10.16,10.16,0,0,1,58.07.61a2.42,2.42,0,0,1,2.55.32C61.36,1.72,61,3,60.7,4A110.54,110.54,0,0,0,57.09,17.4a3.68,3.68,0,0,0,.14,2.68,3.76,3.76,0,0,0,2.38,1.32C62.7,22.2,66,23,69,22a12.58,12.58,0,0,1,3.71-1.16c2.13,0,3.79,1.78,5.78,2.5,2.72,1,5.7-.17,8.29-1.45s5.29-2.75,8.16-2.45c-1.71.06-3.1,1.41-4,2.86A38.74,38.74,0,0,1,88.4,26.7c-1.7,2.08-4.37,3-6.76,4.26s-4.82,3.11-5.17,5.77c-.19,1.5.32,3.06-.08,4.51S73.83,43.73,73,42.46c-.88.23-.72,1.53-.35,2.36L75.79,52c1,2.4,2.57,5.15,5.17,5.36.48.65-.21,1.51-.89,1.95a11.69,11.69,0,0,1-6.67,1.87C69,61,65.16,58.51,61.31,56.46c-.77-.4-1.56-.79-2.38-1.15" transform="translate(0 0)"/><path class="cls-3" d="M52.82,139a15.51,15.51,0,0,0-3.31,10.55,17.71,17.71,0,0,1,.11,3,17.07,17.07,0,0,1-.85,3.11c-1.72,5.61-.2,11.63,1.33,17.29" transform="translate(0 0)"/><path class="cls-3" d="M32.6,157.89q6.56,3.26,13.3,6.1c-.33-7.84-4.84-15.23-4.18-23.05" transform="translate(0 0)"/></g></g></g></g></g></svg>