<svg xmlns="http://www.w3.org/2000/svg" viewBox="0 0 126.37 128.83"><defs><style>.cls-1{fill:#fc9;}.cls-2{fill:#ffa1ac;}.cls-3{fill:none;stroke:#000;stroke-miterlimit:10;stroke-width:0.5px;}</style></defs><g id="Layer_2" data-name="Layer 2"><g id="Layer_1-2" data-name="Layer 1"><path class="cls-1" d="M13.51,81.15c-1.64-.38-2.21-2.55-1.66-4.14s1.81-2.8,2.74-4.19c3.34-4.95,2.53-12.12,6.62-16.47,2.4-2.54,6-3.53,9.26-4.69,10.74-3.79,20.38-10.47,31.39-13.39C70,36.09,78.63,36.1,87.1,36.11c3.54,0,7.15,0,10.53,1.1a28.73,28.73,0,0,1,7.51,4A31.63,31.63,0,0,1,114,49.69a39.17,39.17,0,0,1,3.87,9.13,42.55,42.55,0,0,1,2.55,11.08c.35,7.81-3.68,15.24-8.85,21.12s-11.44,10.58-17.68,15.26c-5.79,4.34-11.7,8.74-18.49,11.25-11.31,4.17-23.8,2.66-35.85,3.07a69.47,69.47,0,0,1-11.45,0c-3.79-.5-7.61-1.92-10.18-4.76-2.16-2.37-3.25-5.5-4.87-8.28-1.79-3.07-4.33-5.92-4.77-9.45a17.13,17.13,0,0,1,.67-6l4.3-18.4"/><path class="cls-2" d="M60,81.65c-.11-.07-.17.17-.06.22a.34.34,0,0,0,.33-.13,32.5,32.5,0,0,1,17.45-7.8,16,16,0,0,1,4.68,0,1.78,1.78,0,0,1,.79.28,1.69,1.69,0,0,1,.53.8c1.06,2.73-.15,5.94-2.24,8s-4.91,3.16-7.68,4.1c-3.66,1.23-7.78,2.2-11.26.54a4.18,4.18,0,0,1-2.64-3.31,5.45,5.45,0,0,1,.6-2.29"/><path class="cls-3" d="M84.41,24.85a229.19,229.19,0,0,0-50,14.75c-6,2.53-12,5.4-16.71,9.85C12.43,54.35,9,60.89,6.3,67.52c-4,9.6-6.82,20-5.87,30.3s6.24,20.7,15.33,25.73c5.09,2.81,11,3.8,16.74,4.39,23.69,2.42,49.09-1.84,67.44-17A93.86,93.86,0,0,0,116.73,92a58.12,58.12,0,0,0,6.33-11,44.66,44.66,0,0,0,3.06-16.22,38.6,38.6,0,0,0-2.25-14.47c-3.93-10.13-13.48-17.21-23.69-20.9-9.94-3.58-21.53-4.27-30.66,1"/><path class="cls-3" d="M25.25,43.81C31.47,30.45,37.68,19.88,43.9,6.52L51.62,34.2"/><path class="cls-3" d="M89,27.3,106.19.74c1.09,11.83,2.2,23.76,5.78,35.08"/><path class="cls-3" d="M52.59,91.34q5.77,3.34,11.78,6.27a23.84,23.84,0,0,0,4.13,1.68c5.73,1.55,11.68-1.05,17-3.69,2-1,4.25-2.31,4.65-4.52"/><path class="cls-3" d="M75.33,75.53a24.55,24.55,0,0,0-10.87.87c-2,.63-4.19,1.82-4.58,3.89s1.41,4.21,3.28,5.46A12.63,12.63,0,0,0,67,87.59c3,.74,6.14-.13,9-1.21a12.17,12.17,0,0,0,5.22-3.14c1.33-1.57,1.83-4,.63-5.69a6.36,6.36,0,0,0-3.81-2.06,7.78,7.78,0,0,0-5.18.21"/><path class="cls-3" d="M68.15,79.18l0,3.44"/><path class="cls-3" d="M74.81,78.65,74.23,82l.31-3.24v2.84"/><path class="cls-3" d="M56.29,75q4.2-2.22,8.56-4.07a5.63,5.63,0,0,1,2.25-.6,7.38,7.38,0,0,1,2.52.78c2.74,1.1,5.76,1.18,8.69,1.44s6,.75,8.36,2.51,3.75,5.15,2.41,7.77a8.14,8.14,0,0,1-2.34,2.55A25.31,25.31,0,0,1,60,87.76a5.85,5.85,0,0,1-2.26-1.82A6,6,0,0,1,57,83.51a34.33,34.33,0,0,1,.31-10.94"/><path class="cls-3" d="M50.9,88a8.08,8.08,0,0,0,1,10.14,14,14,0,0,0,5.84,2.91,63,63,0,0,0,20.84,2.5,28,28,0,0,0,9.73-1.89,13.44,13.44,0,0,0,7.14-6.61c1.12-2.54,1-6-1.33-7.54-1.74-1.19-4.13-.91-6,0A56.57,56.57,0,0,0,82.75,91c-6.08,3.75-14.13,3.5-20.55.36-2.92-1.44-5.72-3.46-9-3.63a3.7,3.7,0,0,0-2.82.83,1.79,1.79,0,0,0,.06,2.64"/><path class="cls-3" d="M29.16,48.5c-5,3.21-10.64,7.33-10.93,13.3a22.06,22.06,0,0,1-.15,3.55,9,9,0,0,1-1.81,3.4c-2.15,2.81-4.8,5.76-4.59,9.29.1,1.72.89,3.33,1,5,.13,2.41-1.12,4.66-2,6.93a20.76,20.76,0,0,0,1.37,17.12c.71,1.27,1.57,2.47,2.15,3.8.82,1.88,1.11,4.06,2.45,5.61a9.13,9.13,0,0,0,3,2.08c13.2,6.42,28.77,4.38,43.26,2.05q6.68-1.07,13.34-2.17a30.72,30.72,0,0,0,7.41-1.85,27.17,27.17,0,0,0,5.87-3.74,134.56,134.56,0,0,0,26.09-26.83A32.51,32.51,0,0,0,119.87,79a27.11,27.11,0,0,0,1.22-12.5,52.31,52.31,0,0,0-4-15.5,21.25,21.25,0,0,0-4.61-7.19,26.74,26.74,0,0,0-5-3.46c-4.29-2.49-8.78-5.05-13.73-5.35-3.61-.23-7.19.78-10.62,1.94-3,1-6.09,2.15-9.16,1.53-2.81-.57-5.22-2.58-8.07-2.91-3.06-.35-5.95,1.27-8.87,2.26-3.74,1.26-7.74,1.5-11.59,2.35A37.83,37.83,0,0,0,24.11,53.31"/><path class="cls-3" d="M56.74,56l2-.5.34.44a3.24,3.24,0,0,1-1.26,1.53c-.6.3-1.51,0-1.61-.62A1.07,1.07,0,0,1,57,55.8a2.65,2.65,0,0,1,1.4,0,.51.51,0,0,1,.27.12.36.36,0,0,1,0,.43.94.94,0,0,1-1.13.32c0-.46.6-.62,1.05-.52a.24.24,0,0,1,.18.09c.08.1,0,.24-.11.33a1.84,1.84,0,0,1-.9.48.36.36,0,0,1-.29,0c-.16-.12,0-.37.1-.49a1,1,0,0,1,1-.16.6.6,0,0,1-.67.58.57.57,0,1,1,.41-1,.33.33,0,0,1,.11.13c0,.1,0,.19-.1.27a2.19,2.19,0,0,1-.72.67.72.72,0,0,1-.89-.19.57.57,0,0,1,.23-.54c.19-.1.48.06.42.26"/><path class="cls-3" d="M92.08,55.55l-1,1.38a1.39,1.39,0,0,0,1.3-.8l-.13-.46a1.61,1.61,0,0,0-1,.36.59.59,0,0,0,.06.92.85.85,0,0,0,.42,0c.43,0,1-.3.89-.72a.53.53,0,0,0-.15-.26.79.79,0,0,0-1.13,0,.69.69,0,1,0,1.21.54.81.81,0,0,0-.69-.9.91.91,0,0,0-.93.69.6.6,0,0,0,.07.49.7.7,0,0,0,.72.24.92.92,0,0,0,.69-.51.64.64,0,0,0-.22-.79.49.49,0,0,0-.7.31.82.82,0,0,0,.9.19.27.27,0,0,0-.45.06"/></g></g></svg>