<svg xmlns="http://www.w3.org/2000/svg" viewBox="0 0 183.08 310.54"><defs><style>.cls-1{fill:none;stroke:#231f20;stroke-miterlimit:10;}</style></defs><g id="Layer_2" data-name="Layer 2"><g id="Layer_1-2" data-name="Layer 1"><path class="cls-1" d="M118.41,79.24c.37-2.93-7.33-8.43-9.91-9.52-2.1-.88-4.44-1.17-6.45-2.26-5.47-3-6.42-10.41-10.36-15.23-2.3-2.83-5.69-4.81-7.3-8.08a9.32,9.32,0,0,1,2.72-11.21,5,5,0,0,1,3-1.12c1.13,0,2.24.6,3.37.45,1.48-.2,2.51-1.56,3.86-2.19,2-.95,4.45-.13,6.35,1.05s3.63,2.73,5.77,3.39,4.94,0,5.75-2"/><path class="cls-1" d="M122.22,83c2.37,1.39,2.9,3.41,4.11,5.88,3.4,6.94,9.92,11.73,16.2,16.24,3,2.14,6.11,4.35,9.75,4.85a3.7,3.7,0,0,0,3.44-.93c.42-.52.58-1.23,1.06-1.7a5.22,5.22,0,0,1,2.14-.88c2.88-.94,4.32-4.14,5.11-7.07s1.41-6.17,3.7-8.17c1.28-1.12,3-1.75,4.06-3.07,1.62-2,1.22-5.11-.29-7.2-.64-.87-1.49-1.79-1.3-2.85a4.36,4.36,0,0,1,.73-1.46,6.37,6.37,0,0,0-.48-7.12,6.44,6.44,0,0,1-1.59-2.3,3.26,3.26,0,0,1,.93-2.72c2.59-3,7.3-3.48,10-6.43,1.91-2.08,2.46-5.05,2.68-7.86.27-3.4.15-7-1.38-10s-4.47-5.35-7.25-7.47a11.35,11.35,0,0,0-3.17-1.88,22.9,22.9,0,0,0-3-.51,34.86,34.86,0,0,1-6.23-2.1,30.2,30.2,0,0,0-13.91-1.59,24.83,24.83,0,0,1-5.63.44c-1.79-.19-3.5-.92-5.3-1-4.07-.16-7.55,3-11.59,3.52-1.71.22-3.44-.06-5.15.08s-3.55.83-4.32,2.37a2.49,2.49,0,0,1-.78,1.16c-.41.23-1.1-.18-.86-.59"/><path class="cls-1" d="M54,65.13c2.74,23.37,3.76,46.9,4.78,70.41A226.41,226.41,0,0,1,59,158.4c-.43,7.52-1.59,15-2.08,22.49-.54,8.28-.26,16.58-.29,24.87-.15,33.15-5.41,66-10.65,98.77"/><path class="cls-1" d="M59.23,261c-1.41,18.94-4.34,24.69-8.12,43.3"/><path class="cls-1" d="M86,46.41c-1.23,1.87-1.87,2.8-3.89,3.77-1.36.66-3,.88-4,2.06A10.42,10.42,0,0,0,77,54.94c-1.34,3.27-5.25,4.58-8.74,5.16s-8.49,1.38-11,3.9a404.76,404.76,0,0,1,6.45,95.48c-.65,12.79-1.88,25.55-2.38,38.36"/><path class="cls-1" d="M53.46,65.6a27.61,27.61,0,0,1-10.25-.24c-2-.43-4-1.08-6-.74a23.65,23.65,0,0,1-3.4.72c-2.36.06-4.24-1.84-6.16-3.23-3.29-2.38-7.31-3.48-11-5.12s-7.43-4.11-8.8-7.94a11.52,11.52,0,0,0-.69-1.8A9.92,9.92,0,0,0,5,45.06a11.49,11.49,0,0,1-3.7-7.73,2.08,2.08,0,0,1,.33-1.49c.24-.28.6-.44.79-.75.44-.77-.45-1.57-1-2.25-1.6-1.92-.74-4.8.2-7.11s2.09-5,4.35-6.26c1.32-.74,2.94-1,4-2s1.3-2.34,1.92-3.54C13.42,11,16.59,9.39,19.57,8c3.85-1.82,7.79-3.66,12-4.08A33.36,33.36,0,0,0,36,3.44a29.59,29.59,0,0,0,4.57-1.86,10.78,10.78,0,0,1,6.1-.95,5.51,5.51,0,0,1,4.45,3.91c3.06.74,5.82-3.38,8.85-2.48a6.89,6.89,0,0,1,2,1.19A16,16,0,0,0,74.27,5.83c1.64-.34,3.22-.94,4.87-1.2A12.29,12.29,0,0,1,93.26,18.24c-.15,1.23-1.08,2.67-.37,3.68,2.92,4.14,3.46,6.71,3.46,8.73"/><path class="cls-1" d="M82.22,188.5l-2.56,15.79c-1.07,6.63-2.14,13.27-2.69,20-.38,4.63-.51,9.28-.64,13.93L74.78,293.7c-.15,5.35-.29,10.76.79,16"/><path class="cls-1" d="M105.08,184.06c-1.23,2.46-2,1.22-4.67.41-.76,2.7-4.22,3.5-7,3.3s-6-1-8.41.49c-3.71,20.83-6.36,42-5.45,63.13.14,3.35.38,6.69.34,10,0,3.74-.42,7.47-.71,11.21a250.51,250.51,0,0,0-.08,37.86"/><path class="cls-1" d="M83.16,188.07c-2.13,2.1-5.82,1.84-8.23.09-1.36-1-2.65-2.43-4.32-2.33a4.53,4.53,0,0,1-1.51,0C68,185.54,68,184,67.61,183c-.47-1.34-1.72-2.21-2.61-3.32a9.16,9.16,0,0,1-1.26-7.93,27.18,27.18,0,0,1,3.68-7.44,8.36,8.36,0,0,1,2.71-3.06,18.37,18.37,0,0,1,4.55-1.12"/><path class="cls-1" d="M110.35,198.27c-2.06,33.3-3,66.84-9.93,99.48"/><path class="cls-1" d="M123.61,83.7a3,3,0,0,0-4,.17,8.14,8.14,0,0,0-2.08,3.85c-4.41,14.36-7.86,95.55-7.16,110.55"/><path class="cls-1" d="M105.38,177.76c-.43,17.82-6.12,102.46-9.7,120.05"/><path class="cls-1" d="M118.69,77.71c-6.74,12.45-7.82,27.09-8.75,41.22"/><path class="cls-1" d="M63.91,87.4l-.67.3a4.12,4.12,0,0,1,1.77.68A1.85,1.85,0,0,1,65.8,90c-.17,1.26,0,1.43.8,2.62.12.18.24.43.09.59a.51.51,0,0,1-.39.1A3.83,3.83,0,0,1,64.76,93a1.46,1.46,0,0,1-.86-1.23"/><path class="cls-1" d="M66.34,94.62l1,1.74a2.46,2.46,0,0,1,.41,1.18.85.85,0,0,1-.74.87,1.25,1.25,0,0,1-.84-.5L64,95.61"/><path class="cls-1" d="M63.4,94.15c1.05-.09,1.8,1.12,1.78,2.18,0,1.39-1.29,2.81-2.66,2.53a2.51,2.51,0,0,1-1.71-1.6,7.51,7.51,0,0,1-.4-2.4c0,.94.28,1,0,1.91a2.85,2.85,0,0,1-1.86,1.94,1.16,1.16,0,0,1-1.36-.48,1.5,1.5,0,0,1-.05-.76,7,7,0,0,1,1.34-3.23A13,13,0,0,1,55,100.72a8.28,8.28,0,0,1,1-6.37c-.74-.42-1.79,1-2.19.24a1,1,0,0,1-.06-.62C54,92.72,55.4,92.08,56,91"/><path class="cls-1" d="M80.63,230a8.31,8.31,0,0,1,2.61,1.09,1,1,0,0,1,.46.47.88.88,0,0,1-.09.65,2.17,2.17,0,0,1-1.62,1.1,4.59,4.59,0,0,1-2-.18"/><path class="cls-1" d="M80.64,234.32a18.78,18.78,0,0,1,1.08,1.91,1.73,1.73,0,0,1,.24.82.65.65,0,0,1-.48.63.76.76,0,0,1-.52-.15c-.7-.42-.59-1.34-.6-2.16a3.8,3.8,0,0,0,1.94.82c.72,0,1.49-.55,1.42-1.26a1.64,1.64,0,0,0-.37-.8,9.15,9.15,0,0,0-2.19-2.2"/><path class="cls-1" d="M77.07,257.33a.76.76,0,0,1-.29.9,7.67,7.67,0,0,0-4.56-3.74c-2.78-.81-5.8,0-8.63-.6-3.13-.67-5.8-3-9-3.23a20.27,20.27,0,0,0,3.9,9.44A5.48,5.48,0,0,0,60,261.57a5.69,5.69,0,0,0,2.65.63c2.67.14,5.46-.09,7.91,1,2.72,1.18,4.59,3.77,7.23,5.13"/><line class="cls-1" x1="109.94" y1="118.93" x2="105.38" y2="177.76"/><line class="cls-1" x1="59.74" y1="252.4" x2="61.39" y2="197.84"/><path class="cls-1" d="M55.57,79.3a7.17,7.17,0,0,0-.87,1.34A2.78,2.78,0,0,1,53,81.78c.41-1.62.9-3.21,1.45-4.79.15-.44.42-.95.88-1"/><path class="cls-1" d="M74.65,159.85c4-.07,7.53-2.31,11.37-3.27a27.92,27.92,0,0,1,4.46-.67c3.36-.27,7-.19,9.77,1.68a4.19,4.19,0,0,1,1.64,1.85c.17.43.22.89.37,1.33.56,1.62,2.65,2.47,3.82,3.73"/></g></g></svg>