<svg xmlns="http://www.w3.org/2000/svg" viewBox="0 0 736.19 156"><g id="Layer_2" data-name="Layer 2"><g id="Layer_1-2" data-name="Layer 1"><g id="decomposing_flower" data-name="decomposing flower"><path d="M364.08,12.91c2.6.9,3.1,4.6,1.9,7s-3.4,4.3-5.1,6.4a17.73,17.73,0,0,0-.7,20.7,4.47,4.47,0,0,0,3,2.2c1.2.1,2.3-.8,3.2-1.6a35.8,35.8,0,0,0,11.4-26.2c4.8,12.8-2.7,28.8-15.6,33.3a21.61,21.61,0,0,1-8.5-23.2c-4.7,5.2-9.3,10.4-14,15.6-1.8,2-3.8,4.8-2.5,7.2,11.7,23.3,13.2,53.3-2.3,74.2a84.06,84.06,0,0,0-.3-70.4c-1.2-2.6-3.6-5.6-6.3-4.6-10.7,4.1-24.2-3.7-26-15.1a85.9,85.9,0,0,0-8.5,24c-.7,3.8-1.3,7.8-3.4,11s-6.5,5.3-9.9,3.5c-3.1-1.6-4-5.5-4.2-9-.9-14,5.1-27.7,14-38.6a80.88,80.88,0,0,1,60-29.3c17.9-.4,35.1,13,39.1,30.4-2.4,1.5-4.6-2-5.6-4.6-4.4-11.5-15.7-19.4-27.7-21.4s-24.6,1.6-34.9,8c3.3.5,6.7.9,10,1.3-.7,2.6-4.5,2.7-7,1.7s-5.3-2.7-7.7-1.6c-2,.9-2.9,3.2-3.6,5.3-1.3,4.1-2.1,9.7,1.7,11.8,2.8,1.5,6.3-.1,8.9-2.1a43.25,43.25,0,0,0,14.6-19.6c3.7,1.6,2,7.2-.3,10.6-3.6,5.3-7.5,10.8-13.3,13.6s-13.9,1.8-16.9-3.9c-4.6,7,.7,17.2,8.6,19.8s16.7-1,22.9-6.5c2.5-2.2,4.9-5.2,4.4-8.5-.6-4.2-5.4-8.4-2.7-11.6.9,5.7,9,7.6,14,4.6s7.2-8.9,9.3-14.4m-81.4,37.3c8.2-1.5,13.6-9.2,18-16.4,3-5,6-10.1,8.9-15.2-2.8-1.6-6.1,1.3-8,4-6,8.1-12,16.1-17.9,24.2-.8,1-1.5,2.3-1,3.4m1.4,22.9c1.5-.2,2.4-1.6,3.1-2.9a60.14,60.14,0,0,0,6.2-19.8c-8.4,1.2-14.8,10.4-13,18.7.4,2,1.7,4.2,3.7,4"/><path d="M697.78,77.21a11.48,11.48,0,0,1-2.4-4.5,7.51,7.51,0,0,1,5.6-1.5,19,19,0,0,1-3.1,6"/><path d="M543.88,53.31a8,8,0,0,1-3.2,9.9,10.45,10.45,0,0,1,3.2-9.9"/><path d="M534.88,64.21c1.1,0,2.3.1,3.4.1a9.1,9.1,0,0,1-10.1,5.5,6.36,6.36,0,0,1,6.7-5.5"/><path d="M680.38,57.71a15.44,15.44,0,0,1-6.1,4c.1-4.3,4.2-8.6,8.2-7.2a4.32,4.32,0,0,1-2.1,3.1"/><path d="M48.88,55c2.9.8,4.5,4.6,3,7.1a21.11,21.11,0,0,1-8.4-5.3c.6-2.1,3.7-3,5.2-1.5"/><path d="M476.48,63.41a14.73,14.73,0,0,1-2.6,9.6,8.3,8.3,0,0,1-5.4,3.9,14.8,14.8,0,0,1,8-13.5"/><path d="M548.28,82.71c-.3,3.1-.6,6.1-1,9.1,2,.8,4.4-.6,5.4-2.5a12.29,12.29,0,0,0,.9-6.3c3.9.6,4.5,6.4,2,9.3-2.9,3.5-9.1,3.9-11.9.3s.1-10.1,4.6-9.9"/><path d="M362.18,54.71c-1.6,6-10.3,8.6-15,4.4s-2.8-13.2,3.1-15.3c-.6,4.5-1.3,9-1.9,13.4a36.27,36.27,0,0,0,13.8-2.5"/><path d="M139.68,58.91c1.6,1.5,0,4-1.7,5.2-4.2,3-9.6,4.6-14.6,3.4s-9.3-5.6-9.6-10.8a7.92,7.92,0,0,1,2.8-6.8c2.1,1.5,1.3,4.7,1.7,7.2.8,4.2,5.5,6.7,9.7,6.5s8.1-2.5,11.7-4.7"/><path d="M153.28,80.41c-7.6-2.1-14.9,8.5-22.1,5.5-4.9-2.1-5.5-8.7-5-14,.2-1.7,1.7-3.8,2.9-2.7.2,2.3.5,4.6.7,6.8a8.84,8.84,0,0,0,1.4,4.5c1.8,2.1,5.2,1.9,7.7.7s4.8-3,7.5-3.8,6.2.2,6.9,3"/><path d="M436.58,96.71a5.85,5.85,0,0,1,2.7,2.9,31,31,0,0,1-10.8,2.5,65.48,65.48,0,0,1,11-15.2c3.1-3.2,7.5-6.2,11.7-4.6a14.84,14.84,0,0,1-10.8,14.8,15.21,15.21,0,0,0,5.9-12.2,24.9,24.9,0,0,0-9.7,11.8"/><path d="M284.88,86.11c.6,3.9,5.4,6,9.1,4.8s6.2-4.9,7.3-8.6,1-7.8,1.2-11.7c-3.6-.8-5.6-5.7-3.5-8.7,9.2,6.7,9.8,22.2,1.2,29.7-3,2.7-7.2,4.4-11.1,3.6s-7.4-4.6-6.9-8.6c.9-.2,1.8-.3,2.7-.5"/><path d="M181.88,46.11c1,4.1-.7,8.5-3.5,11.7s-6.6,5.2-10.4,7c-3.3,1.4-7,2.7-10.4,1.6-4.7-1.5-7-6.9-7.9-11.8s-.9-10.8,2.4-14.6,9.1-4.7,14.2-4.2c6.6.6,14,3.9,15.6,10.3m-15.2-4.4c-1.9-.4-3.6-1.4-5.5-1.5-3.8-.1-6.9,3.6-7.5,7.3s.7,7.6,2,11.2c.9,2.7,4.2,4,7,3.6s5.3-1.9,7.6-3.6c2.5-1.7,5-3.7,6.4-6.4s1.2-6.5-1.2-8.4-5.8-1.4-8.8-2.2"/><path d="M259.38,123.51a54.56,54.56,0,0,1,16.5-19.2c5.7,4,11.5,8,17.3,12,.3.3.7.5.8.9.6,1.5-2.1,1.7-3.7,1.9-2.5.2-4.2,2.6-5.7,4.7a44.8,44.8,0,0,1-17,14.4,9,9,0,0,1-4.2,1.3c-3.3-.1-5.9-3.3-6.3-6.5s.8-6.5,2.3-9.5m17.6,3.4c2.6-2.1,5.1-4.5,6-7.7s-.4-7.2-3.5-8.2c-2.9-.8-5.9,1-8.1,3a35,35,0,0,0-9.7,15.9c-.6,2-.3,5,1.8,5.2a3.61,3.61,0,0,0,2-.6,73.84,73.84,0,0,0,11.5-7.6"/><path d="M161.48,78.71c1.6,1.6.6,4.2,0,6.3s-.2,5.4,2,5.4A14.92,14.92,0,0,0,177.68,80c.8-3,1.5-7.2,4.7-7.5a16.37,16.37,0,0,0-.6,14c2.1-.7,4.1-1.3,6.2-1.9a11.07,11.07,0,0,1,2.6-.7c4.9-.7,9.4,3.4,10.9,8.1s.8,9.7.1,14.6c-2.3,15.8-4.6,31.7-6.9,47.6-.1.5-.2,1.2-.6,1.5-1.3,1.1-2.8-1.2-2.9-2.9-.6-18.5,7.4-36.5,6.1-54.9-.3-3.6-1.4-7.8-4.7-9a9.46,9.46,0,0,0-3.3-.5c-5.5-.2-11.3-.4-16.2,2.1-2.5,1.3-4.6,3.2-7.3,4.1s-6.1.7-7.5-1.7c-1.5,2.3-4.6,2.8-7.2,2s-4.5-2.6-6.5-4.4c-.4-2.4-.5-5.4,1.6-6.4a10.91,10.91,0,0,0,11.3,8,13.06,13.06,0,0,1,4-13.4"/><path d="M673.28,51.31a196.61,196.61,0,0,0-19.4,11,37.51,37.51,0,0,0-7.1,5.5,21.48,21.48,0,0,0-5.7,16.6l-4.5-7.5a9.51,9.51,0,0,1-10.8-.9,28.25,28.25,0,0,0,16.3-9.2c7.8-8.9,18.7-14.2,29.3-19.3,3-1.4,6.2-2.9,9.5-3s7,1.6,8.1,4.8a19.1,19.1,0,0,0,14.4,12.5,19.6,19.6,0,0,0,18.1-6.3c3-3.5,5.9-8.7,10.4-7.9,4.7.7,5.6,7.8,2.5,11.3s-8.3,4.4-13,5c-2.8.4-5.6.7-8.3,1.1-5.3.7-10.7,1.4-15.7-.1s-9.8-5.7-10.1-10.9c-.2-2.8-3.1-4.9-5.9-5s-5.5,1-8.1,2.3m57.5,5.8a5.53,5.53,0,0,0,1.1-6.1,26.58,26.58,0,0,0-9.5,7.8,7.18,7.18,0,0,0,8.4-1.7"/><path d="M493.88,15c2.5,0,4.6,2.5,7.2,2.3,2.4-.2,4-2.6,6.2-3.5,4.2-1.8,10.7,1.4,12.8-2.6a9.77,9.77,0,0,0,3.2,10,11.48,11.48,0,0,0-13,4,23.11,23.11,0,0,1-13.8,9.4c4.1,4.8,3.5,11.8,4.2,18a84.79,84.79,0,0,0,2,11c2.5,10.5,5.3,21.6,13.1,29-4,1.8-7.8-2.7-9.7-6.7a108.69,108.69,0,0,1-9.7-38.8c-.3-4.7-1.3-10.8-5.9-11.9-2-.5-4.2.3-6.3.5a13.12,13.12,0,0,1-13.6-8.9,29.08,29.08,0,0,1-6.1,12.3,25.56,25.56,0,0,1,2.7-16.5,8.12,8.12,0,0,1,2.7-3.1c4.4-2.3,9.4,4,14.2,2.7,4-1.2,5.6-7.2,9.8-7.2m-22.4,8.5c2.8,7.4,12.6,9.4,20.3,7.8,8.6-1.9,16.6-7.1,20.7-14.8-2.5-1.1-5.1,1.1-7.1,2.9s-5.3,3.4-7.3,1.5-5.6-.4-7.7,1.7-4.2,4.7-7.2,4.8c-4.2,0-7.8-5.6-11.7-3.9"/><path d="M158.78,6.21a62.15,62.15,0,0,1-14.9,1.3c-2.7,4.5-1.4,11.2,3.2,13.8s11.5-.2,12.2-5.4a6.11,6.11,0,0,1,4,6.9,27.5,27.5,0,0,0,21.9-2.4,6.57,6.57,0,0,0,.2,9.7,6.58,6.58,0,0,0,9.5-2.1c0,3.3,2.6,5.8,4.6,8.4s3.4,6.5,1.1,8.8c-4.2,4.3-3.7,12.2,1,15.9,3,2.4.2,7.1.9,10.8.7,4.1,6.9,5.9,9.7,2.8.3,3.9-4.3,6.8-8,5.6s-5.6-5.4-5.2-9.2c.8-7-7-12.8-6.1-19.8.4-2.9,2.4-5.4,3.4-8.2s.9-6.6-1.7-7.9c-2.3-1.3-5.2.1-7.8,0-4.4-.1-7.8-5.3-6.2-9.4-2.6,3.2-7.7,3.2-11.7,1.9s-8-3.3-12.2-3c-2.9.1-5.6,1.4-8.5,1.4-7.1-.1-12-9.7-7.9-15.5-4.9-.1-9.5,2.7-12.7,6.4s-5.2,8.3-7.2,12.8c-1.1,2.4-2.2,5-1.9,7.7s2.2,5.4,4.9,5.4c4.9,0,8.8-8.4,12.7-5.4-2.8,3.7-5.8,7.6-10.1,9.4s-10.2.8-12.2-3.4a13.47,13.47,0,0,1-.6-6.3,52.07,52.07,0,0,1,13.2-29.7c.9-1,2-2,3.2-1.9,5.2.4,10.1-2.1,15.2-3.3s11.4-.6,14,3.9"/><path d="M15.68,94.81a27.66,27.66,0,0,1,9-28.9c1.7,3.8-1.3,8-3.4,11.6s-2.9,9.4,1,10.9c-2.9,2-2,7,.9,8.9s6.8,1.7,10.3,1.1,7-1.6,10.4-.7c-3.7,6.6-13.2,6-20.6,4.3-6.6-1.5-13.5-3.4-18-8.4-7.2-8-5.6-20.2-3.5-30.7,1.4-7.1,2.8-14.4,6.1-20.9s8.7-12.2,15.7-14.3c5.7-1.7,9.4-7,14.5-10.1s13.8-2.2,14.5,3.7a8,8,0,0,1,10.8-2.2A7.92,7.92,0,0,1,65.18,30c-3.4,4.6-.3,11,1.8,16.4a40.42,40.42,0,0,1,.9,26.8c-2.2,7.1-7.5,14.2-15,14.7,1.7-4,5.4-6.8,7.5-10.7s1.2-10-3-10.8c-6.8,14.4-5.7,31.2-4.5,47.1.9,11.8,1.8,23.7,2.7,35.6-3.1,1.4-5.2-3.3-5.4-6.6-.7-12.4-1.4-24.9-2.1-37.3-.2-3.9-.7-8.5-4-10.7a36.52,36.52,0,0,0-4.1-1.8c-6.6-2.7-10.3-9.8-11-16.9s1.3-14,3.2-20.8c1.2-4.1,2.8-8.7,6.8-10.3s9.2,3.7,6.2,6.7c-.4-1.1-.9-2.1-1.3-3.1-4.5-.8-7.5,4.6-8.4,9.2a65.61,65.61,0,0,0-1,19.3,16.5,16.5,0,0,0,2.5,8.4c1.7,2.4,5,3.9,7.8,2.8l10.8-27.6c1.1-2.8,2.5-5.8,5.4-6.7s3.1-5.4,1-7.6-5.4-2.7-8.5-3.1c-.5-3-.3-7.2,2.8-7.7,4.7-1.5,7.1-8,4.5-12.2-1.9-2.9-6.4.1-7.8,3.2s-3.4,7.3-6.8,6.6c2.3-3,3.1-7.5.9-10.7s-7.7-3.6-9.7-.3C33,29,28.58,36,24.18,43.11c-.1-3.8-.2-7.5-.3-11.3a33.1,33.1,0,0,0-17.1,22c2.8-1.2,5.6-2.5,8.4-3.7a82,82,0,0,0-8,15.6c-2.1,5.4-3.7,11.3-2.6,17.1s5.4,11.2,11.1,12M64.08,67a14.8,14.8,0,0,0,2.3-10.6,5.46,5.46,0,0,0-5.8,4.3,5.56,5.56,0,0,0,3.5,6.3"/></g></g></g></svg>