<svg xmlns="http://www.w3.org/2000/svg" xmlns:xlink="http://www.w3.org/1999/xlink" viewBox="0 0 1271.375 341.646">
  <defs>
    <clipPath id="clip-path">
      <rect id="Rectangle_32" data-name="Rectangle 32" width="125.865" height="213.942" fill="none"/>
    </clipPath>
    <clipPath id="clip-path-2">
      <rect id="Rectangle_30" data-name="Rectangle 30" width="80.15" height="211.792" fill="none"/>
    </clipPath>
    <clipPath id="clip-path-3">
      <rect id="Rectangle_33" data-name="Rectangle 33" width="176.521" height="299.995" fill="none"/>
    </clipPath>
    <clipPath id="clip-path-4">
      <rect id="Rectangle_34" data-name="Rectangle 34" width="176.521" height="300" fill="none"/>
    </clipPath>
    <clipPath id="clip-path-5">
      <rect id="Rectangle_37" data-name="Rectangle 37" width="206.406" height="225.812" fill="none"/>
    </clipPath>
    <clipPath id="clip-path-7">
      <rect id="Rectangle_41" data-name="Rectangle 41" width="161.53" height="229.686" fill="none"/>
    </clipPath>
    <clipPath id="clip-path-9">
      <rect id="Rectangle_85" data-name="Rectangle 85" width="165.655" height="173.034" fill="none"/>
    </clipPath>
  </defs>
  <g id="Group_110" data-name="Group 110" transform="translate(-373.318 -2606.03)">
    <g id="Centella" transform="matrix(0.966, -0.259, 0.259, 0.966, 1535.067, 2776.849)">
      <g id="Group_33" data-name="Group 33" transform="translate(-62.933 -106.971)" clip-path="url(#clip-path)">
        <path id="Path_267" data-name="Path 267" d="M200.519,96.7c.26-2.018-5.045-5.826-6.835-6.575s-3.06-.814-4.427-1.562c-3.776-2.051-4.427-7.161-7.128-10.513-1.595-1.953-3.938-3.32-5.045-5.566a6.412,6.412,0,0,1,1.855-7.714,3.45,3.45,0,0,1,2.051-.781,18.793,18.793,0,0,0,2.311.325c.781-.1,1.725-1.074,2.669-1.5a5.872,5.872,0,0,1,4.394.716,18.991,18.991,0,0,0,3.971,2.343c1.465.456,3.418.033,3.971-1.4" transform="translate(-119.05 -42.244)" fill="none" stroke="#231f20" stroke-miterlimit="10" stroke-width="0.325"/>
        <path id="Path_268" data-name="Path 268" d="M246.461,93.847c1.627.944,1.985,2.343,2.832,4.069,2.343,4.785,6.835,8.1,11.164,11.2,2.051,1.465,4.231,2.994,6.738,3.353a2.507,2.507,0,0,0,2.376-.651c.553-.684.391-.846.749-1.172a4.236,4.236,0,0,1,1.465-.618c1.985-.651,2.994-2.864,3.515-4.882s.976-4.264,2.539-5.631c.879-.781,2.051-1.2,2.8-2.116s.846-3.515-.2-4.947c-.423-.586-1.009-1.237-.879-1.953a3.06,3.06,0,0,1,.521-1.009,4.394,4.394,0,0,0-.325-4.915,4.412,4.412,0,0,1-1.107-1.595,2.14,2.14,0,0,1,.651-1.855c1.79-2.083,5.045-2.409,6.9-4.427a9.054,9.054,0,0,0,1.855-5.436,14.01,14.01,0,0,0-.944-6.9c-1.042-2.116-3.092-3.678-5.013-5.143a7.551,7.551,0,0,0-2.181-1.3,14.615,14.615,0,0,0-2.051-.358,25.729,25.729,0,0,1-4.3-1.465,20.766,20.766,0,0,0-9.667-1.107,17.272,17.272,0,0,1-3.873.293c-1.3-.13-2.409-.651-3.645-.684-2.8-.1-5.208,2.083-8.007,2.441-1.172.13-2.376-.033-3.548.033a3.573,3.573,0,0,0-2.994,1.627c-.163.293-.26.651-.521.814s-.749-.13-.586-.391" transform="translate(-162.356 -36.822)" fill="none" stroke="#231f20" stroke-miterlimit="10" stroke-width="0.325"/>
        <path id="Path_269" data-name="Path 269" d="M102.433,137.4c1.888,16.112,2.6,32.353,3.287,48.562.228,5.24.456,10.513.163,15.754s-1.107,10.318-1.432,15.526c-.358,5.7-.163,11.425-.2,17.153-.1,22.849-3.743,45.535-7.356,68.092" transform="translate(-65.36 -92.678)" fill="none" stroke="#231f20" stroke-miterlimit="10" stroke-width="0.325"/>
        <path id="Path_270" data-name="Path 270" d="M113.3,552.3c-.976,13.052-2.994,17.023-5.6,29.847" transform="translate(-72.645 -372.534)" fill="none" stroke="#231f20" stroke-miterlimit="10" stroke-width="0.325"/>
        <path id="Path_271" data-name="Path 271" d="M140.622,97.8a5.814,5.814,0,0,1-2.7,2.6c-1.4.684-2.083.618-2.734,1.432s-.521,1.237-.781,1.855c-.911,2.246-3.613,3.157-6.021,3.58s-5.859.944-7.584,2.7a278.746,278.746,0,0,1,4.459,65.846c-.456,8.821-1.3,17.609-1.627,26.462" transform="translate(-81.481 -65.968)" fill="none" stroke="#231f20" stroke-miterlimit="10" stroke-width="0.325"/>
        <path id="Path_272" data-name="Path 272" d="M37.017,45.436a18.944,18.944,0,0,1-7.063-.163,11.294,11.294,0,0,0-4.134-.521,14.27,14.27,0,0,1-2.343.488c-1.627.033-2.929-1.269-4.264-2.213-2.278-1.66-5.045-2.409-7.616-3.515s-5.11-2.832-6.054-5.468a7.616,7.616,0,0,0-.488-1.237,6.4,6.4,0,0,0-1.465-1.5A7.909,7.909,0,0,1,1.05,25.939,1.432,1.432,0,0,1,1.278,24.9c.163-.2.423-.293.553-.521s-.325-1.074-.716-1.562c-1.107-1.3-.521-3.255.13-4.882s1.432-3.418,2.994-4.3c.911-.521,2.018-.684,2.767-1.4A7.821,7.821,0,0,0,8.341,9.795C9.383,7.777,11.6,6.67,13.647,5.726a25.614,25.614,0,0,1,8.3-2.832,23.892,23.892,0,0,0,3.027-.325A22.852,22.852,0,0,0,28.131,1.3a8.3,8.3,0,0,1,4.2-.651,3.754,3.754,0,0,1,3.06,2.7c2.116.521,4.036-2.343,6.119-1.725a4.947,4.947,0,0,1,1.4.814,11.034,11.034,0,0,0,8.5,1.79c1.139-.228,2.213-.651,3.353-.814a8.463,8.463,0,0,1,9.7,9.374c-.1.846-.749,1.855-.26,2.539,2.018,2.864,2.376,4.622,2.376,6.021" transform="translate(-0.334 -0.388)" fill="none" stroke="#231f20" stroke-miterlimit="10" stroke-width="0.325"/>
        <path id="Path_273" data-name="Path 273" d="M162.805,398.8l-1.758,10.9c-.749,4.557-1.465,9.146-1.855,13.768-.26,3.19-.358,6.412-.456,9.6l-1.074,38.277a48.111,48.111,0,0,0,.553,11.034" transform="translate(-106.301 -268.996)" fill="none" stroke="#231f20" stroke-miterlimit="10" stroke-width="0.325"/>
        <path id="Path_274" data-name="Path 274" d="M183.909,389.4c-.846,1.693-1.4.846-3.222.293-.521,1.855-2.9,2.409-4.85,2.278s-4.134-.684-5.794.325c-2.571,14.354-4.394,28.968-3.776,43.55.1,2.311.26,4.622.228,6.933s-.293,5.143-.488,7.714a172.544,172.544,0,0,0-.065,26.1" transform="translate(-111.618 -262.656)" fill="none" stroke="#231f20" stroke-miterlimit="10" stroke-width="0.325"/>
        <path id="Path_275" data-name="Path 275" d="M147.443,357.9c-1.465,1.432-4,1.269-5.663.065-.944-.684-1.823-1.66-2.962-1.595a3,3,0,0,1-1.042.033c-.749-.228-.749-1.269-1.009-2.018a10.954,10.954,0,0,0-1.79-2.278,6.346,6.346,0,0,1-.879-5.468,18.475,18.475,0,0,1,2.539-5.143,6.151,6.151,0,0,1,1.855-2.116,9.783,9.783,0,0,1,3.125-.781" transform="translate(-90.287 -228.391)" fill="none" stroke="#231f20" stroke-miterlimit="10" stroke-width="0.325"/>
        <path id="Path_276" data-name="Path 276" d="M219.035,419.5c-1.4,22.947-2.116,46.089-6.835,68.612" transform="translate(-143.132 -282.959)" fill="none" stroke="#231f20" stroke-miterlimit="10" stroke-width="0.325"/>
        <path id="Path_277" data-name="Path 277" d="M242.215,175.835a2.093,2.093,0,0,0-2.767.13,5.484,5.484,0,0,0-1.432,2.669c-3.027,9.895-5.436,65.878-4.947,76.229" transform="translate(-157.166 -118.29)" fill="none" stroke="#231f20" stroke-miterlimit="10" stroke-width="0.325"/>
        <path id="Path_278" data-name="Path 278" d="M208.8,376c-.293,12.3-4.231,70.663-6.705,82.771" transform="translate(-136.319 -253.617)" fill="none" stroke="#231f20" stroke-miterlimit="10" stroke-width="0.325"/>
        <path id="Path_279" data-name="Path 279" d="M238.354,164.1c-4.654,8.593-5.4,18.683-6.054,28.415" transform="translate(-156.69 -110.688)" fill="none" stroke="#231f20" stroke-miterlimit="10" stroke-width="0.325"/>
        <path id="Path_280" data-name="Path 280" d="M133.856,184.6l-.456.2a2.832,2.832,0,0,1,1.2.456,1.269,1.269,0,0,1,.553,1.139c-.13.879,0,.976.553,1.79a.352.352,0,0,1,.065.423.326.326,0,0,1-.26.065,2.669,2.669,0,0,1-1.074-.228,1.009,1.009,0,0,1-.586-.846" transform="translate(-89.98 -124.515)" fill="none" stroke="#231f20" stroke-miterlimit="10" stroke-width="0.325"/>
        <path id="Path_281" data-name="Path 281" d="M136.627,199.9l.651,1.2a1.692,1.692,0,0,1,.293.814.586.586,0,0,1-.521.618.846.846,0,0,1-.586-.358L135,200.584" transform="translate(-91.059 -134.835)" fill="none" stroke="#231f20" stroke-miterlimit="10" stroke-width="0.325"/>
        <path id="Path_282" data-name="Path 282" d="M120.064,194.448c.716-.065,1.237.781,1.237,1.5s-.879,1.953-1.823,1.758a1.725,1.725,0,0,1-1.172-1.107,5.142,5.142,0,0,1-.26-1.66c0,.651.2.716,0,1.334a1.953,1.953,0,0,1-1.3,1.335.814.814,0,0,1-.944-.325.944.944,0,0,1-.033-.521,4.817,4.817,0,0,1,.911-2.213,8.86,8.86,0,0,1-2.343,4.459,5.729,5.729,0,0,1,.651-4.394c-.521-.293-1.237.684-1.5.163a.651.651,0,0,1-.033-.423c.163-.846,1.139-1.3,1.562-2.051" transform="translate(-76.514 -129.709)" fill="none" stroke="#231f20" stroke-miterlimit="10" stroke-width="0.325"/>
        <path id="Path_283" data-name="Path 283" d="M169.356,486.6a5.631,5.631,0,0,1,1.79.749.716.716,0,0,1,.325.326.586.586,0,0,1-.065.456,1.53,1.53,0,0,1-1.107.749,3.157,3.157,0,0,1-1.4-.13" transform="translate(-113.925 -328.219)" fill="none" stroke="#231f20" stroke-miterlimit="10" stroke-width="0.325"/>
        <path id="Path_284" data-name="Path 284" d="M169.9,492.393a12.567,12.567,0,0,1,.749,1.3,1.2,1.2,0,0,1,.163.553.456.456,0,0,1-.325.423.553.553,0,0,1-.358-.1c-.488-.293-.391-.911-.423-1.5a2.636,2.636,0,0,0,1.334.553.941.941,0,0,0,.976-.879,1.2,1.2,0,0,0-.26-.553,6.379,6.379,0,0,0-1.5-1.5" transform="translate(-114.465 -330.984)" fill="none" stroke="#231f20" stroke-miterlimit="10" stroke-width="0.325"/>
        <path id="Path_285" data-name="Path 285" d="M130.526,535.089a.521.521,0,0,1-.2.618,5.305,5.305,0,0,0-3.157-2.571c-1.92-.553-4,0-5.956-.423s-4-2.083-6.217-2.213a14,14,0,0,0,2.7,6.51,3.808,3.808,0,0,0,1.009,1.009,3.939,3.939,0,0,0,1.823.423c1.855.1,3.776-.065,5.468.683s3.157,2.6,4.98,3.548" transform="translate(-77.569 -357.83)" fill="none" stroke="#231f20" stroke-miterlimit="10" stroke-width="0.325"/>
        <line id="Line_18" data-name="Line 18" x1="3.157" y2="40.556" transform="translate(72.486 81.827)" fill="none" stroke="#231f20" stroke-miterlimit="10" stroke-width="0.325"/>
        <line id="Line_19" data-name="Line 19" y1="37.626" x2="1.139" transform="translate(41.011 136.248)" fill="none" stroke="#231f20" stroke-miterlimit="10" stroke-width="0.325"/>
        <path id="Path_286" data-name="Path 286" d="M113.49,162.813a4.784,4.784,0,0,0-.618.944,1.92,1.92,0,0,1-1.172.781q.423-1.66,1.009-3.287c.1-.293.293-.651.618-.651" transform="translate(-75.343 -108.327)" fill="none" stroke="#231f20" stroke-miterlimit="10" stroke-width="0.325"/>
        <path id="Path_287" data-name="Path 287" d="M157.6,332.331c2.734-.033,5.175-1.595,7.844-2.246a19.011,19.011,0,0,1,3.092-.456c2.311-.2,4.817-.13,6.738,1.172a2.865,2.865,0,0,1,1.139,1.269c.13.293.163.618.26.911.391,1.107,1.823,1.693,2.636,2.571" transform="translate(-106.303 -222.284)" fill="none" stroke="#231f20" stroke-miterlimit="10" stroke-width="0.325"/>
      </g>
    </g>
    <g id="Artwork_3" data-name="Artwork 3" transform="translate(1121.711 2770.075) rotate(-16)">
      <g id="Artwork_3-2" data-name="Artwork 3" transform="translate(-40.075 -105.896)" clip-path="url(#clip-path-2)">
        <path id="Path_251" data-name="Path 251" d="M65.3,77.6l-.2,11.907A39.191,39.191,0,0,0,65.3,77.6Z" transform="translate(-20.807 -24.802)" fill="none" stroke="#000" stroke-miterlimit="10" stroke-width="0.68"/>
        <path id="Path_252" data-name="Path 252" d="M41.323,235.736l1.225-67.155a14.218,14.218,0,0,1,.748-1.7c1.157-1.973,2.994-2.381,4.491-3.946s1.361-5.239,1.565-8.029.816-3.81,1.021-5.783c.34-3.946-1.5-8.1-.2-11.839s6.192-6.668,7.348-10.954a86.952,86.952,0,0,0-8.165,7.552c-2.722,2.722-5.579,5.715-6.124,9.525-.136.816-.136,1.633-.272,2.449l.136-6.328a10.951,10.951,0,0,0,2.79-4.082,30.146,30.146,0,0,0,.544-3.334,16.806,16.806,0,0,1,1.429-3.674,160.689,160.689,0,0,0,7.688-20.956c.272-.885.34-2.245-.612-2.449a23.2,23.2,0,0,1-4.014,9.457,26.671,26.671,0,0,1-3.4,3.81,13.947,13.947,0,0,0-2.109,2.245c-1.293,1.905-1.293,4.286-2.041,6.464l.68-37.49m-8.165,29.6c.748,10-.408,20-.272,30.005a7.907,7.907,0,0,0-3.47-4.218c-1.7-.816-3.81-.544-5.579-1.293a8.845,8.845,0,0,1-3.062-2.449c-2.79-3.062-5.035-6.94-8.777-8.709-1.293-.612-2.722-.953-4.014-1.633-3.538-1.769-5.443-5.579-8.165-8.437-.34-.34-.816-.68-1.157-.408s-.272.816-.136,1.293l2.109,5.443a14.7,14.7,0,0,0,1.633,3.334,18.915,18.915,0,0,0,2.177,2.313,26.331,26.331,0,0,1,6.192,9.253c.748,1.905,1.225,3.946,2.654,5.375s1.361,1.021,1.905,1.633a19.727,19.727,0,0,1,1.633,3.2,12.043,12.043,0,0,0,5.579,5.239c1.293.68,11.363,4.559,12.791,4.967-.408,8.369-3.4-6.124.68,5.443.544,1.633.136,16.533,1.361,17.69-.34,3.2-.68,3.4-.68,12.927,0,13.132-1.769,24.9,0,37.966l.272-46.675.136-.544M40.71,81.9c-.748,10.614-.68,10.818-1.429,21.432" transform="translate(-0.363 -26.176)" fill="none" stroke="#000" stroke-miterlimit="10" stroke-width="0.68"/>
        <path id="Path_253" data-name="Path 253" d="M44.183,118.166a2.3,2.3,0,0,0-1.905-2.109,21.289,21.289,0,0,1-2.994-.68c-.953-.408-2.654-2.994-4.355-4.014s-2.109-.68-2.994-1.293a6.4,6.4,0,0,1-1.7-1.769c-3.334-4.559-4.763-10.138-6.124-15.581a24.086,24.086,0,0,1-.816-4.559,1.293,1.293,0,0,1,.2-.885c.34-.408,1.021-.272,1.5-.068A44.77,44.77,0,0,1,41.733,98.57a21.5,21.5,0,0,1,3.81,5.307c2.585,5.443,1.293,12.179-2.381,16.942" transform="translate(-7.442 -27.81)" fill="none" stroke="#000" stroke-miterlimit="10" stroke-width="0.68"/>
        <path id="Path_254" data-name="Path 254" d="M63.7,65.8a14.221,14.221,0,0,1-.953,3.946,6.056,6.056,0,0,1-.884,1.633A7.621,7.621,0,0,1,60.574,72.6c-5.307,4.286-6.872,11.567-8.5,18.234a3.606,3.606,0,0,1-.748,1.7c-.885.953-2.517.612-3.606-.136s-1.837-1.905-2.926-2.585A2.313,2.313,0,0,0,43.7,89.41" transform="translate(-13.967 -21.03)" fill="none" stroke="#000" stroke-miterlimit="10" stroke-width="0.68"/>
        <path id="Path_255" data-name="Path 255" d="M15.263,76.034c-4.286-1.225-10.75-2.585-14.016-5.647A2.041,2.041,0,0,1,.5,69.3a1.7,1.7,0,0,1,.748-1.5c1.361-1.089,3.334-.748,5.035-1.157s4.286-2.722,5.783-4.763A4.38,4.38,0,0,0,13.29,58.82c-.136-1.157-1.7-2.313-2.517-3.538S9.548,51.2,7.779,50.519s-1.633-.136-2.449-.272-1.7-.68-1.633-1.5.748-1.089,1.361-1.361a5.783,5.783,0,0,1,2.722-.272c1.293.2,2.449.816,3.742.816s2.79-.953,2.585-2.245-1.225-1.633-1.565-2.585a2.313,2.313,0,0,1,0-1.361c.544-2.041,2.994-2.994,5.1-2.585" transform="translate(-0.159 -12.485)" fill="none" stroke="#000" stroke-miterlimit="10" stroke-width="0.68"/>
        <path id="Path_256" data-name="Path 256" d="M55.533,46.838c-2.79-1.225-5.783-1.905-8.573-.748s-5.035,4.559-8.165,5.783c-1.021.408-2.517.408-2.926-.68A2.313,2.313,0,0,1,35.8,50.1c.2-1.769.748-3.538.34-5.239a7.212,7.212,0,0,0-3.2-4.354A18.235,18.235,0,0,0,27.909,38.4c-2.722-.816-5.715-1.565-7.824-3.674s-2.79-5.919-.612-7.893c3.334-2.858,12.859.816,9.253-6.4C26,15.064,23.554,9.621,24.1,3.429a2.976,2.976,0,0,1,.953-2.245c.68-.476,2.313.136,3.266.885Q35.257,7.511,41.789,13.5c.953.885,2.449,1.769,3.4.885a2.722,2.722,0,0,0,.612-1.089A32.8,32.8,0,0,1,51.042,3.7,8.359,8.359,0,0,1,54.784.707,2.041,2.041,0,0,1,56.961.98c.612.68.34,1.769.068,2.585a94.576,94.576,0,0,0-3.062,11.294A3.13,3.13,0,0,0,54.1,17.1a3.13,3.13,0,0,0,1.973,1.089c2.585.68,5.375,1.361,7.961.476a10.4,10.4,0,0,1,3.13-.953c1.089,0,3.2,1.5,4.9,2.109S76.9,19.69,79.074,18.6s4.491-2.313,6.872-2.041a4.666,4.666,0,0,0-3.4,2.381c-.816,1.225-1.225,2.654-2.177,3.742s-3.674,2.585-5.715,3.606-4.082,2.585-4.354,4.9.272,2.585-.068,3.81-2.177,2.109-2.858,1.021c-.748.2-.612,1.293-.272,1.973l2.654,6.055c.885,2.041,2.177,4.354,4.354,4.491.408.544-.2,1.293-.748,1.633A9.866,9.866,0,0,1,67.712,51.8c-3.674-.136-6.94-2.245-10.206-3.946l-1.973-.953" transform="translate(-5.796 -0.163)" fill="none" stroke="#000" stroke-miterlimit="10" stroke-width="0.68"/>
        <path id="Path_257" data-name="Path 257" d="M63.576,172.4a13.132,13.132,0,0,0-2.79,8.913,14.764,14.764,0,0,1,.068,2.517,14.56,14.56,0,0,1-.748,2.654c-1.429,4.763-.136,9.8,1.157,14.628" transform="translate(-19.011 -55.101)" fill="none" stroke="#000" stroke-miterlimit="10" stroke-width="0.68"/>
        <path id="Path_258" data-name="Path 258" d="M40.4,189.088q5.511,2.722,11.226,5.171c-.272-6.6-4.082-12.859-3.538-19.459" transform="translate(-12.912 -55.868)" fill="none" stroke="#000" stroke-miterlimit="10" stroke-width="0.68"/>
      </g>
    </g>
    <g id="Artwork_21" data-name="Artwork 21" transform="translate(475.261 2756.03)">
      <g id="Artwork_21-2" data-name="Artwork 21" transform="translate(-88.261 -150)">
        <g id="Group_34" data-name="Group 34" clip-path="url(#clip-path-3)">
          <path id="Path_288" data-name="Path 288" d="M103.063,278.874a16.586,16.586,0,0,1,7.9-1.785c13.957-.379,26.941,7.3,40.844,8.656,5.626.541,11.469.108,16.77,2s10.008,7.357,8.6,12.821a15.039,15.039,0,0,1-2.38,4.544c-2.759,4.057-6.059,8.115-10.6,10.008s-10.711,1.19-15.743-.757-9.575-4.977-14.39-7.3c-11.631-5.626-23.424-4.274-35.218-7.79-9.521-2.813-2.6-16.608,4.22-20.395" transform="translate(-43.231 -127.183)" fill="#fc3"/>
          <path id="Path_289" data-name="Path 289" d="M56.209,60.942,61.4,56.993a7.357,7.357,0,0,0,8.169-.108,17.419,17.419,0,0,0,2.7-2.651A41.331,41.331,0,0,1,86.017,44.226a18.226,18.226,0,0,0,4.057-2.164A14,14,0,0,0,93.1,37.68,79.073,79.073,0,0,0,96.3,30.269c.757-2.056,1.407-4.544.054-6.275s-2.813-1.731-3.9-2.975S91.21,17.826,90.885,16.1A14.92,14.92,0,0,0,77.144,4.572C73.574,4.464,70.112,5.708,66.6,6.2a50.8,50.8,0,0,1-9.088.108c-2.921-.108-6-.325-8.547-1.731-1.407-.649-2.6-1.677-4-1.893s-4.057,1.028-6,1.948C33.379,7.169,26.725,5.708,20.829,7.548c-5.031,1.569-9.143,5.41-12.01,9.846s-4.6,9.413-6.384,14.39a2.272,2.272,0,0,0-.162,1.3c.216.866,1.3,1.19,1.785,1.948s-.108,2.272.054,3.408A4.761,4.761,0,0,0,5.248,40.71l7.249,9.3a5.68,5.68,0,0,0,1.785,1.731,7.011,7.011,0,0,0,2.813.487A13.038,13.038,0,0,1,25.7,56.4c2,2.164,3.408,5.193,6.221,6.113,4.111,1.352,8.006-2.6,12.28-3.192,2.489-.325,4.977.487,7.466.92a22.992,22.992,0,0,0,13.795-2" transform="translate(-1.029 -1.218)" fill="#fbb03b"/>
          <path id="Path_290" data-name="Path 290" d="M175.38,108.991c6.167-.325,11.144,4.815,16.933,6.87,3.787,1.352,7.9,1.407,11.9,1.244a38.3,38.3,0,0,0,12.226-2.164c8.061-3.138,13.795-10.333,18.393-17.636,5.464-8.6,10.062-18.015,10.982-28.185s-2.488-21.1-10.6-27.265c-10.008-7.628-24.4-6.221-35.975-1.3s-21.531,12.984-33,18.177c-5.356,2.434-12.172,6.275-10.874,12.01s8.223,6.492,11.577,10.711,2.543,9.2.974,13.741-4.057,8.818-4.815,13.524" transform="translate(-71.241 -16.754)" fill="#c33"/>
        </g>
        <g id="Group_35" data-name="Group 35" clip-path="url(#clip-path-4)">
          <path id="Path_291" data-name="Path 291" d="M182.635,100.727c.379-2.813-7.087-8.169-9.575-9.2s-4.274-1.136-6.221-2.164c-5.3-2.867-6.221-10.062-10.008-14.715-2.218-2.759-5.518-4.652-7.033-7.79a8.98,8.98,0,0,1,2.6-10.82,4.815,4.815,0,0,1,2.867-1.082c1.082,0,2.164.6,3.246.433s2.434-1.515,3.733-2.11,4.328-.108,6.167,1.028,3.516,2.651,5.572,3.3,4.761.054,5.572-1.948" transform="translate(-68.38 -24.341)" fill="none" stroke="#231f20" stroke-miterlimit="10" stroke-width="0.454"/>
          <path id="Path_292" data-name="Path 292" d="M211.109,101.158c2.272,1.352,2.813,3.3,4,5.68,3.3,6.708,9.575,11.361,15.634,15.688,2.867,2.056,5.9,4.22,9.413,4.707,1.19.162,2.6.054,3.3-.866s.541-1.19,1.028-1.623a7.13,7.13,0,0,1,2.056-.866c2.813-.92,4.166-4,4.923-6.816s1.352-5.951,3.57-7.9c1.244-1.082,2.867-1.677,3.949-2.975s1.19-4.923-.27-6.979c-.6-.866-1.461-1.731-1.244-2.759a4.274,4.274,0,0,1,.7-1.407,6.167,6.167,0,0,0-.487-6.87,5.436,5.436,0,0,1-1.515-2.218,3.138,3.138,0,0,1,.92-2.6c2.489-2.921,7.087-3.354,9.684-6.221,1.839-2,2.38-4.869,2.6-7.628s.162-6.708-1.352-9.684-4.328-5.193-7.033-7.2a10.6,10.6,0,0,0-3.084-1.839,20.5,20.5,0,0,0-2.867-.487,32.761,32.761,0,0,1-6-2.056,29.1,29.1,0,0,0-13.47-1.515,26.3,26.3,0,0,1-5.464.433c-1.839-.162-3.408-.866-5.139-.974-3.949-.162-7.3,2.921-11.2,3.408-1.623.216-3.3-.054-4.977.054a4.913,4.913,0,0,0-4.166,2.272c-.216.433-.379.92-.757,1.136s-1.082-.162-.811-.6" transform="translate(-93.176 -21.202)" fill="none" stroke="#231f20" stroke-miterlimit="10" stroke-width="0.454"/>
          <path id="Path_293" data-name="Path 293" d="M89.582,115.9c2.651,22.613,3.625,45.334,4.652,68.055a215.641,215.641,0,0,1,.216,22.126c-.433,7.357-1.515,14.5-2,21.747s-.271,16.013-.271,24.019c-.162,32.026-5.247,63.836-10.279,95.483" transform="translate(-37.594 -53.201)" fill="none" stroke="#231f20" stroke-miterlimit="10" stroke-width="0.454"/>
          <path id="Path_294" data-name="Path 294" d="M98.744,466c-1.352,18.285-4.22,23.857-7.844,41.872" transform="translate(-41.725 -213.904)" fill="none" stroke="#231f20" stroke-miterlimit="10" stroke-width="0.454"/>
          <path id="Path_295" data-name="Path 295" d="M129.752,82.5c-1.19,1.839-1.785,2.7-3.787,3.679s-2.921.866-3.841,2-.7,1.731-1.082,2.6c-1.3,3.192-5.085,4.436-8.439,4.977s-8.223,1.352-10.6,3.787a390.859,390.859,0,0,1,6.221,92.345c-.649,12.388-1.839,24.723-2.326,37.111" transform="translate(-46.82 -37.869)" fill="none" stroke="#231f20" stroke-miterlimit="10" stroke-width="0.454"/>
          <path id="Path_296" data-name="Path 296" d="M51.627,63.417a26.562,26.562,0,0,1-9.9-.216c-1.893-.433-3.841-1.028-5.788-.7a22.353,22.353,0,0,1-3.3.7c-2.272.054-4.111-1.785-5.951-3.138C23.5,57.737,19.6,56.709,16.031,55.086s-7.2-4-8.547-7.682a10.657,10.657,0,0,0-.649-1.731,9.51,9.51,0,0,0-2.056-2.11A11.09,11.09,0,0,1,1.154,36.1a2,2,0,0,1,.325-1.461c.216-.27.6-.433.757-.7s-.433-1.569-.974-2.218c-1.569-1.839-.7-4.652.162-6.87s2-4.815,4.22-6.059c1.3-.7,2.867-.92,3.9-1.948s1.244-2.272,1.839-3.408c1.461-2.813,4.544-4.382,7.411-5.734,3.787-1.785,7.574-3.57,11.685-3.949a31.377,31.377,0,0,0,4.22-.433A31.653,31.653,0,0,0,39.13,1.529a11.526,11.526,0,0,1,5.9-.92A5.262,5.262,0,0,1,49.3,4.342c2.975.7,5.626-3.246,8.547-2.38A6.924,6.924,0,0,1,59.8,3.1,15.472,15.472,0,0,0,71.7,5.586c1.569-.325,3.138-.92,4.707-1.136A11.847,11.847,0,0,1,90.037,17.6c-.162,1.19-1.028,2.6-.379,3.57,2.813,4,3.354,6.492,3.354,8.439" transform="translate(-0.18 -0.231)" fill="none" stroke="#231f20" stroke-miterlimit="10" stroke-width="0.454"/>
          <path id="Path_297" data-name="Path 297" d="M140.307,336.4l-2.488,15.256c-1.028,6.384-2.056,12.821-2.6,19.313-.379,4.49-.487,8.98-.6,13.47L133.112,438.1c-.162,5.193-.27,10.387.757,15.472" transform="translate(-61.053 -154.415)" fill="none" stroke="#231f20" stroke-miterlimit="10" stroke-width="0.454"/>
          <path id="Path_298" data-name="Path 298" d="M165.435,328.5c-1.19,2.38-1.948,1.19-4.49.379-.757,2.6-4.057,3.408-6.816,3.192s-5.788-.92-8.115.487c-3.57,20.124-6.167,40.573-5.248,61.022.162,3.246.379,6.492.325,9.684s-.379,7.249-.7,10.82a241.982,241.982,0,0,0-.054,36.624" transform="translate(-64.11 -150.788)" fill="none" stroke="#231f20" stroke-miterlimit="10" stroke-width="0.454"/>
          <path id="Path_299" data-name="Path 299" d="M131.939,312.749c-2.056,2-5.626,1.785-7.952.108-1.3-.974-2.543-2.326-4.166-2.272a4.167,4.167,0,0,1-1.461.054c-1.082-.325-1.082-1.785-1.461-2.813s-1.677-2.11-2.543-3.192a8.947,8.947,0,0,1-1.244-7.682,24.848,24.848,0,0,1,3.57-7.2,8.627,8.627,0,0,1,2.6-2.975,12.673,12.673,0,0,1,4.382-1.082" transform="translate(-51.766 -131.142)" fill="none" stroke="#231f20" stroke-miterlimit="10" stroke-width="0.454"/>
          <path id="Path_300" data-name="Path 300" d="M188.675,353.9c-2,32.188-2.921,64.647-9.575,96.186" transform="translate(-82.211 -162.448)" fill="none" stroke="#231f20" stroke-miterlimit="10" stroke-width="0.454"/>
          <path id="Path_301" data-name="Path 301" d="M209.542,148.542c-.974-1.028-2.813-.757-3.9.162a7.844,7.844,0,0,0-2,3.733c-4.274,13.9-7.628,92.4-6.925,106.9" transform="translate(-90.256 -67.882)" fill="none" stroke="#231f20" stroke-miterlimit="10" stroke-width="0.454"/>
          <path id="Path_302" data-name="Path 302" d="M179.913,317.3c-.433,17.257-5.951,99.053-9.413,116.094" transform="translate(-78.263 -145.647)" fill="none" stroke="#231f20" stroke-miterlimit="10" stroke-width="0.454"/>
          <path id="Path_303" data-name="Path 303" d="M204.493,138.4c-6.546,12.064-7.574,26.183-8.493,39.87" transform="translate(-89.968 -63.528)" fill="none" stroke="#231f20" stroke-miterlimit="10" stroke-width="0.454"/>
          <path id="Path_304" data-name="Path 304" d="M113.249,155.7l-.649.27a4,4,0,0,1,1.731.649,1.785,1.785,0,0,1,.757,1.569c-.162,1.244,0,1.352.757,2.543.108.162.216.433.108.6a.487.487,0,0,1-.379.108,3.732,3.732,0,0,1-1.461-.325,1.406,1.406,0,0,1-.811-1.19" transform="translate(-51.686 -71.47)" fill="none" stroke="#231f20" stroke-miterlimit="10" stroke-width="0.454"/>
          <path id="Path_305" data-name="Path 305" d="M116.126,168.6l.92,1.677a2.38,2.38,0,0,1,.379,1.136.811.811,0,0,1-.7.866,1.19,1.19,0,0,1-.811-.487l-2.11-2.218" transform="translate(-52.237 -77.391)" fill="none" stroke="#231f20" stroke-miterlimit="10" stroke-width="0.454"/>
          <path id="Path_306" data-name="Path 306" d="M104.882,165.229c1.028-.108,1.731,1.082,1.731,2.11s-1.244,2.7-2.543,2.434a2.434,2.434,0,0,1-1.677-1.569,7.2,7.2,0,0,1-.379-2.326c0,.92.27.974,0,1.839a2.759,2.759,0,0,1-1.785,1.893,1.136,1.136,0,0,1-1.3-.487,1.353,1.353,0,0,1-.054-.7,6.762,6.762,0,0,1,1.244-3.084,12.636,12.636,0,0,1-3.3,6.275,8.006,8.006,0,0,1,.92-6.167c-.7-.379-1.731.974-2.11.216a.92.92,0,0,1-.054-.6c.216-1.19,1.569-1.839,2.164-2.867" transform="translate(-43.86 -74.453)" fill="none" stroke="#231f20" stroke-miterlimit="10" stroke-width="0.454"/>
          <path id="Path_307" data-name="Path 307" d="M143.049,410.6a7.9,7.9,0,0,1,2.543,1.028.973.973,0,0,1,.433.433.811.811,0,0,1-.108.649,2.164,2.164,0,0,1-1.569,1.082,4.437,4.437,0,0,1-1.948-.162" transform="translate(-65.365 -188.474)" fill="none" stroke="#231f20" stroke-miterlimit="10" stroke-width="0.454"/>
          <path id="Path_308" data-name="Path 308" d="M143.425,416.472a17.588,17.588,0,0,1,1.028,1.839,1.732,1.732,0,0,1,.216.811.649.649,0,0,1-.487.6.757.757,0,0,1-.487-.162c-.649-.433-.541-1.3-.6-2.11a3.679,3.679,0,0,0,1.893.811c.7,0,1.461-.541,1.352-1.19a1.677,1.677,0,0,0-.379-.757,8.926,8.926,0,0,0-2.11-2.11" transform="translate(-65.686 -190.126)" fill="none" stroke="#231f20" stroke-miterlimit="10" stroke-width="0.454"/>
          <path id="Path_309" data-name="Path 309" d="M118.847,453.992a.7.7,0,0,1-.27.866,7.411,7.411,0,0,0-4.436-3.624c-2.7-.812-5.626,0-8.331-.6s-5.626-2.921-8.71-3.138a19.638,19.638,0,0,0,3.787,9.143,5.3,5.3,0,0,0,1.461,1.406,5.518,5.518,0,0,0,2.543.6c2.6.162,5.3-.108,7.682.92s4.436,3.625,6.979,4.977" transform="translate(-44.571 -205.412)" fill="none" stroke="#231f20" stroke-miterlimit="10" stroke-width="0.454"/>
          <line id="Line_20" data-name="Line 20" x1="4.382" y2="56.911" transform="translate(101.65 114.742)" fill="none" stroke="#231f20" stroke-miterlimit="10" stroke-width="0.454"/>
          <line id="Line_21" data-name="Line 21" y1="52.8" x2="1.623" transform="translate(57.506 191.02)" fill="none" stroke="#231f20" stroke-miterlimit="10" stroke-width="0.454"/>
          <path id="Path_310" data-name="Path 310" d="M96.789,138.592a6.708,6.708,0,0,0-.866,1.3,2.651,2.651,0,0,1-1.623,1.082q.6-2.326,1.407-4.652c.162-.433.379-.92.866-.92" transform="translate(-43.286 -62.151)" fill="none" stroke="#231f20" stroke-miterlimit="10" stroke-width="0.454"/>
          <path id="Path_311" data-name="Path 311" d="M133,281.892c3.841-.054,7.3-2.218,10.982-3.138a26.676,26.676,0,0,1,4.328-.649c3.246-.271,6.708-.162,9.413,1.623a4,4,0,0,1,1.569,1.785c.162.433.216.866.379,1.3.541,1.569,2.543,2.38,3.679,3.625" transform="translate(-61.05 -127.605)" fill="none" stroke="#231f20" stroke-miterlimit="10" stroke-width="0.454"/>
        </g>
      </g>
    </g>
    <g id="Artwork_22" data-name="Artwork 22" transform="matrix(0.999, -0.052, 0.052, 0.999, 961.982, 2829.523)">
      <g id="Group_41" data-name="Group 41" transform="translate(-103.203 -112.906)">
        <g id="Group_39" data-name="Group 39" clip-path="url(#clip-path-5)">
          <path id="Path_336" data-name="Path 336" d="M84.732,363.836a74.444,74.444,0,0,0,28.346,5.6,111.085,111.085,0,0,0,19.494-2.018,82.179,82.179,0,0,0,17.063-4.5c18.943-7.706,32.291-27.567,32.245-48.024,0-4.679-.78-9.632-3.715-13.256s-7.522-5.412-12.017-6.513-10.229-1.743-15,0c-6.513,2.385-10.871,8.531-13.944,14.724s-5.367,12.935-9.678,18.347c-7.11,8.9-18.668,12.981-29.952,14.77s-22.8,1.605-33.9,4.128c-2.385.55-4.908,1.33-6.238,3.394-1.881,2.89-.275,6.972,2.523,9.036s23.3,4.541,26.649,5.229" transform="translate(-30.653 -159.173)" fill="#c69c6d"/>
          <path id="Path_337" data-name="Path 337" d="M174.613,86.534a24.558,24.558,0,0,1,11.238-1.376,31.282,31.282,0,0,1,10.458,2.569c7.522,3.44,13.164,10.366,20.962,13.026,3.3,1.147,6.88,1.468,10.137,2.8s6.376,3.853,9.219,6.284,6.7,5.963,8.394,10,1.514,7.2,1.055,10.825a26.672,26.672,0,0,1-5.458,13.76c-4.174,5.045-10.5,7.752-16.7,10.045-5.412,2.018-10.962,3.9-16.742,4.587s-11.788.138-16.971-2.477a41.492,41.492,0,0,1-8.9-6.6,28.6,28.6,0,0,1-6.1-6.834c-3.348-5.688-2.936-12.751-2.981-19.356a36.261,36.261,0,0,0-1.56-11.284c-1.559-4.4-4.357-5.917-7.385-9.036-5.6-5.779,6.422-14.953,11.329-16.971" transform="translate(-87.602 -46.032)" fill="#cc9"/>
        </g>
        <g id="Group_40" data-name="Group 40" clip-path="url(#clip-path-5)">
          <path id="Path_338" data-name="Path 338" d="M257.978,131.485l-4.22,3.532c-5.642,4.77-11.238,9.862-15.182,16.191-2.018,3.257-3.027,6.743-4.633,10.137a73.9,73.9,0,0,0-4.541,12.522,4.678,4.678,0,0,1-.688,1.7,6.513,6.513,0,0,1-.871.871,7.431,7.431,0,0,0-2.385,4.679,19.54,19.54,0,0,1-3.669-9.632,36.969,36.969,0,0,1-.046-4.541c.183-6.926.6-13.9,2.385-20.595a44.309,44.309,0,0,1,1.881-5.6,35.272,35.272,0,0,1,6.513-10.274c1.1-1.193,1.7-2.66,2.706-3.9a39.4,39.4,0,0,1,4.22-4.174A53.436,53.436,0,0,1,259.9,111.257c10.871-3.211,22.567-3.257,33.713-1.055C281,116.027,268.62,122.541,257.978,131.485Z" transform="translate(-120.007 -58.83)" fill="none" stroke="#231f20" stroke-miterlimit="10" stroke-width="0.491"/>
          <path id="Path_339" data-name="Path 339" d="M93.457,173.165a17.3,17.3,0,0,0-.367-6.7,12.094,12.094,0,0,0-3.073-4.77A53.987,53.987,0,0,0,51.855,143.58c6.1-6.467,16.512-5.183,25.227-3.44a14.58,14.58,0,0,1,4.77,1.56,18.37,18.37,0,0,1,4.082,4.128,55.638,55.638,0,0,0,11.375,10.6,298.285,298.285,0,0,0,5.091-43.529c.183-4.633.275-9.4-1.009-13.9s-3.807-8.348-6.559-12.017C83.916,72.485,69.193,61.431,54.653,50.56c-6.1-4.541-12.293-9.174-19.494-11.6C24.334,35.286,12.133,36.846,1.4,32.672c14.173-5.825,30.135-8.761,44.813-4.587C59.148,31.8,72.449,38.5,77.541,52.211c2.431,6.513,12.293,6.7,15.274,15.182L95.98,78.907c11.926,9.311,10.091,18.347,8.21,19.907" transform="translate(-0.758 -14.141)" fill="none" stroke="#231f20" stroke-miterlimit="10" stroke-width="0.491"/>
          <path id="Path_340" data-name="Path 340" d="M168.047,447.233a16.7,16.7,0,0,0-2.293-8.99,47.454,47.454,0,0,0-4.587-5.917,55.456,55.456,0,0,1-6.972-10.779c-1.1-2.247-2.064-4.679-1.835-7.155s2.156-4.954,4.633-5.091a7.294,7.294,0,0,1,3.027.688,33.117,33.117,0,0,1,7.66,4.357c1.789,1.33,3.44,2.89,5.5,3.761,2.752,1.147,5.871.917,8.853.688a27.986,27.986,0,0,0,6.743-1.1c3.211-1.1,6.192-3.348,9.541-3.119a2.018,2.018,0,0,1,1.514.642,2.385,2.385,0,0,1,.321,1.33l.229,4.679c.092,1.789.183,3.669-.688,5.275a9.6,9.6,0,0,1-3.578,3.348c-4.633,2.981-9.541,5.55-13.76,9.082a48.855,48.855,0,0,0-7.339,8.348" transform="translate(-82.457 -221.563)" fill="none" stroke="#231f20" stroke-miterlimit="10" stroke-width="0.491"/>
          <path id="Path_341" data-name="Path 341" d="M123.737,385.448a11.414,11.414,0,0,0-4.22-5.963,49.912,49.912,0,0,0-6.33-3.9,80.132,80.132,0,0,1-15.733-11.65,1.238,1.238,0,0,1-.459-.688c-.046-.459.413-.826.871-1.055,3.119-1.514,6.788-1.193,10.229-.688a45.059,45.059,0,0,1,13.99,4.082,20.838,20.838,0,0,1,9.953,10.274c1.284,3.165,1.56,6.6,2.339,9.907,2.2-2.89,4.449-5.779,7.431-7.843s6.788-3.211,10.229-2.156c-3.578,5.183-12.155,5.091-15.182,10.55l-.78-.5" transform="translate(-52.504 -195.463)" fill="none" stroke="#231f20" stroke-miterlimit="10" stroke-width="0.491"/>
          <line id="Line_24" data-name="Line 24" y1="10.091" x2="0.78" transform="translate(89.809 186.04)" fill="none" stroke="#231f20" stroke-miterlimit="10" stroke-width="0.491"/>
          <line id="Line_25" data-name="Line 25" x1="1.743" y2="22.475" transform="translate(90.956 159.024)" fill="none" stroke="#231f20" stroke-miterlimit="10" stroke-width="0.491"/>
          <path id="Path_342" data-name="Path 342" d="M206.8,413.89a106.922,106.922,0,0,1,1.238-13.99" transform="translate(-111.945 -216.474)" fill="none" stroke="#231f20" stroke-miterlimit="10" stroke-width="0.491"/>
          <path id="Path_343" data-name="Path 343" d="M161.4,68.7a11.7,11.7,0,0,0,1.743,2.431c3.945,4.22,10.733,5.321,13.806,10.229a9.982,9.982,0,0,0,1.605,2.248A16.821,16.821,0,0,0,180.71,84.8c2.523,1.743,1.881,5.963,4.036,8.164a27.924,27.924,0,0,1,2.523,2.11c1.238,1.605.642,3.9.78,5.917.183,3.3,2.293,6.1,3.578,9.128A18.851,18.851,0,0,1,193,119.292" transform="translate(-87.369 -37.189)" fill="none" stroke="#231f20" stroke-miterlimit="10" stroke-width="0.491"/>
          <path id="Path_344" data-name="Path 344" d="M273.639,166v3.073c0,3.624-.183,7.66-2.706,10.229s-7.752,2.844-10.733,5.6" transform="translate(-140.852 -89.859)" fill="none" stroke="#231f20" stroke-miterlimit="10" stroke-width="0.491"/>
          <path id="Path_345" data-name="Path 345" d="M252.321,59.051c3.807-9.265,10.687-17.017,18.531-23.3s16.6-11.146,25.411-15.916c2.844-1.56,5.733-3.119,8.669-4.449,11.513-5.183,24.218-7.018,36.832-7.66a39.446,39.446,0,0,0-17.2-6.788A53.62,53.62,0,0,0,312.408.845c-23.347,2.11-45.96,14.907-57.885,35a22.613,22.613,0,0,0-2.477,5.367,26.132,26.132,0,0,0-.6,7.8c.138,4.5-.092,7.568.229,12.017" transform="translate(-136.092 -0.294)" fill="none" stroke="#231f20" stroke-miterlimit="10" stroke-width="0.491"/>
          <path id="Path_346" data-name="Path 346" d="M244.522,128.1a36.511,36.511,0,0,1-1.972,5.458L237,145.943" transform="translate(-128.293 -69.343)" fill="none" stroke="#231f20" stroke-miterlimit="10" stroke-width="0.491"/>
          <path id="Path_347" data-name="Path 347" d="M230.345,99.9c-.275-2.66.734-5.321,1.514-7.889,3.211-10.5,3.165-21.741,3.073-32.75a45.174,45.174,0,0,0-.183-4.724c-.138-1.284-.413-2.569-.55-3.853-.459-4.312.321-8.761-.688-12.981,3.257,3.211,3.578,8.21,4.312,12.705.917,5.6,1.835,6.972,2.385,12.66" transform="translate(-124.666 -20.408)" fill="none" stroke="#231f20" stroke-miterlimit="10" stroke-width="0.491"/>
          <path id="Path_348" data-name="Path 348" d="M213.377,313.2c-4.174,10.183-4.724,28.759-4.312,36.327" transform="translate(-113.11 -169.542)" fill="none" stroke="#231f20" stroke-miterlimit="10" stroke-width="0.491"/>
          <path id="Path_349" data-name="Path 349" d="M234.349,218.8a32.06,32.06,0,0,0-1.789,7.11,24.341,24.341,0,0,1-1.147,6.1c-1.284,3.073-4.22,5.091-5.963,7.935a22.723,22.723,0,0,0-2.477,6.33c-1.468,5.137-3.991,10.412-4.174,15.779" transform="translate(-118.441 -118.441)" fill="none" stroke="#231f20" stroke-miterlimit="10" stroke-width="0.491"/>
          <path id="Path_350" data-name="Path 350" d="M211.445,332.99a18.256,18.256,0,0,1,2.614-8.669,9.174,9.174,0,0,1,1.972-2.89c.642-.55,1.422-.917,2.064-1.514s.917-1.193,1.468-1.7a8.715,8.715,0,0,1,2.11-1.376c3.165-1.7,6.559-3.44,10.137-3.348a42.528,42.528,0,0,1-6.284,6.559c-3.9,3.027-5.458,6.376-7.706,10.091s-3.44,8.669-4.908,12.751c-.367.963-1.651,7.431-2.8,6.788s.459-7.2.55-8.394Z" transform="translate(-113.517 -169.7)" fill="none" stroke="#231f20" stroke-miterlimit="10" stroke-width="0.491"/>
        </g>
      </g>
    </g>
    <g id="Artwork_23" data-name="Artwork 23" transform="translate(1264.226 2745.041) rotate(-8)">
      <g id="Group_45" data-name="Group 45" transform="translate(-80.765 -114.843)">
        <g id="Group_43" data-name="Group 43" clip-path="url(#clip-path-7)">
          <path id="Path_381" data-name="Path 381" d="M55.664,47.547c-11.267,12.394-12.035,31.5-7.17,47.527,3.739,12.24,10.345,24.532,7.938,37.13-1.127,5.838-4.148,11.113-6.3,16.645-4.353,11.011-5.019,24.736,2.612,33.75,9.065,10.7,26.324,10.5,38.769,3.995a51.163,51.163,0,0,0,22.534-23.763c2.407-5.224,4.148-11.165,8.706-14.7s10.192-3.739,14.852-6.555c8.655-5.275,10.5-16.9,10.909-27.041.461-11.677.154-23.712-4.2-34.57S130.9,59.48,119.375,57.38c-7.631-1.383-17.31-.307-21.254-7.016-1.639-2.817-1.69-6.3-2.714-9.372a14.442,14.442,0,0,0-26.939-1.024" transform="translate(-22.273 -15.231)" fill="#c03521"/>
        </g>
        <g id="Group_44" data-name="Group 44" clip-path="url(#clip-path-7)">
          <path id="Path_382" data-name="Path 382" d="M219.3,265.791c6.965-5.326,17.771-1.639,22.842,5.48s5.838,16.389,5.89,25.095a211.72,211.72,0,0,1-8.86,61.611" transform="translate(-106.987 -128.434)" fill="none" stroke="#1a1818" stroke-miterlimit="10" stroke-width="1.209"/>
          <path id="Path_383" data-name="Path 383" d="M180.2,220.9c1.639,6.811,3.329,13.828,2.253,20.742-.512,3.278-1.741,6.658-4.3,8.758a17.773,17.773,0,0,1-5.685,2.766l-8.758,3.073a13.419,13.419,0,0,1-3.943.973c-3.226.1-6.043-2-8.5-4.046-1.69-1.383-3.483-2.817-4.4-4.814a16.813,16.813,0,0,1-.973-7.068l.2-10.089" transform="translate(-71.168 -107.768)" fill="none" stroke="#1a1818" stroke-miterlimit="10" stroke-width="1.209"/>
          <path id="Path_384" data-name="Path 384" d="M90.171,223.665a63.557,63.557,0,0,1-25.863,10.806c-3.175.563-6.811.768-9.372-1.229s-3.022-4.609-3.636-7.324-1.28-6.4-1.69-9.628c-.154-1.332-.256-2.919.819-3.79" transform="translate(-24.156 -103.67)" fill="none" stroke="#1a1818" stroke-miterlimit="10" stroke-width="1.209"/>
          <path id="Path_385" data-name="Path 385" d="M45.635,163.467c-1.69,6.4-8.4,10.294-14.9,11.574a25.632,25.632,0,0,1-13.623-.615,25.044,25.044,0,0,1-9.577-6.351A18.776,18.776,0,0,1,2.82,160.7a9.939,9.939,0,0,1,1.024-8.5" transform="translate(-1.13 -74.252)" fill="none" stroke="#1a1818" stroke-miterlimit="10" stroke-width="1.209"/>
          <path id="Path_386" data-name="Path 386" d="M36.783,59.448c-6.2,3.841-11.267,10.4-18.54,11.113A14.785,14.785,0,0,1,5.8,65.03,21.744,21.744,0,0,1,1.189,51.868c-.41-14.238,9.987-26.683,21.766-34.723C31.559,11.255,41.136,6.9,50.662,2.6" transform="translate(-0.574 -1.268)" fill="none" stroke="#1a1818" stroke-miterlimit="10" stroke-width="1.209"/>
          <path id="Path_387" data-name="Path 387" d="M91.548.9a23.866,23.866,0,0,0-9.116,16.747A23.866,23.866,0,0,0,88.68,35.674a12.307,12.307,0,0,0,6.607,4.046c3.431.615,6.811-1.024,9.833-2.766,5.582-3.226,11.113-7.528,12.906-13.725-.256,6.863,5.838,12.957,12.65,13.981s13.725-2.2,18.488-7.17c-1.024,4.558-1.741,10.038,1.69,13.213a12.128,12.128,0,0,0,5.019,2.458,65.2,65.2,0,0,0,20.537,2.612,22.842,22.842,0,0,0,5.48,17.823c-5.838.819-8.758,7.528-9.731,13.367-.615,3.841-.922,7.887.615,11.472s5.224,6.5,9.065,5.941a20.947,20.947,0,0,0,15.313,33.392,4.191,4.191,0,0,0,3.226-.717c.871-.768.922-2.407-.1-2.817" transform="translate(-40.18 -0.439)" fill="none" stroke="#1a1818" stroke-miterlimit="10" stroke-width="1.209"/>
          <path id="Path_388" data-name="Path 388" d="M148.477,106c-6.555.819-13.162,2-19,5.07s-10.857,8.245-12.291,14.647c-1.024,4.712-.1,9.577,1.332,14.186s3.79,9.782,8.143,12.394c3.073,1.844,6.76,2.253,10.294,2.1,7.938-.256,16.03-3.227,21.254-9.167s7.016-15.159,3.175-22.125a20.666,20.666,0,0,0-11.318-9.014,37.157,37.157,0,0,0-14.647-1.639" transform="translate(-56.957 -51.713)" fill="none" stroke="#1a1818" stroke-miterlimit="10" stroke-width="1.209"/>
          <path id="Path_389" data-name="Path 389" d="M118.286,256.4a27.451,27.451,0,0,0,.41,9.372,6.4,6.4,0,0,0,5.634,4.917,23.616,23.616,0,0,0,10.294-1.024" transform="translate(-57.597 -125.087)" fill="none" stroke="#1a1818" stroke-miterlimit="10" stroke-width="1.209"/>
        </g>
      </g>
    </g>
    <g id="Artwork_9" data-name="Artwork 9" transform="translate(710.173 2829.523) rotate(7)">
      <g id="Artwork_9-2" data-name="Artwork 9" transform="translate(-82.827 -86.517)" clip-path="url(#clip-path-9)">
        <path id="Path_726" data-name="Path 726" d="M2.329,119.47C1.41,118.245-.427,121,1.1,121.307c4.746,5.205,13.932,1.99,18.066-3.674s5.818-12.86,10.1-18.525C37.542,88.237,52.852,86.4,66.325,86.4s28.324.766,39.959,8.267,16.688,17.147,26.027,24.5,24.5,10.564,32.457,1.684" transform="translate(0.274 45.879)" fill="none" stroke="#000" stroke-miterlimit="10" stroke-width="1.531"/>
        <path id="Path_727" data-name="Path 727" d="M50.832,130.084l7.2-4.593A16.535,16.535,0,0,0,63.08,121.2c3.521-5.205.306-11.942-1.837-17.607a57.413,57.413,0,0,1,6.43-53.279c-1.99.306-.766-2.143-2.756-2.143-5.971-.153-12.554-2.45-15.463-7.655s-1.225-13.167,3.674-17.3,12.095-4.9,18.219-3.062A31.079,31.079,0,0,1,86.2,31.641a10.564,10.564,0,0,1,2.45,5.052c.459,4.44-3.827,7.808-8.114,8.88a20.822,20.822,0,0,1-13.779-1.225c-1.531,5.818-4.134,12.095-8.267,16.382S46.852,66.7,42.565,62.72s-3.521-6.277-3.521-9.952a16.382,16.382,0,0,1,2.45-9.645A8.727,8.727,0,0,1,50.22,39.3a20.362,20.362,0,0,1-12.095,1.99,12.4,12.4,0,0,1-9.492-7.349c-1.99-5.205.766-11.023,4.134-15.31s7.655-7.961,13.014-8.574S56.956,13.881,56.5,19.086c3.368-4.134,4.593-9.645,7.961-13.932S74.716-1.582,78.237,2.4a8.267,8.267,0,0,1,.919,8.421,24.343,24.343,0,0,1-5.205,7.2A18.831,18.831,0,0,1,91.1,11.891c4.134.766,8.727,4.746,6.89,8.574a7.961,7.961,0,0,1-3.215,3.062,42.562,42.562,0,0,1-12.4,5.359,22.046,22.046,0,0,1,17.147,4.9c1.99,1.684,3.674,3.981,3.215,6.43s-4.287,4.593-7.5,4.746A20.362,20.362,0,0,1,82.524,40.98,15.922,15.922,0,0,1,94.619,53.993c.459,3.674-.766,7.961-4.134,9.339a8.42,8.42,0,0,1-4.746,0A18.372,18.372,0,0,1,71.807,47.1" transform="translate(14.848 0.204)" fill="none" stroke="#000" stroke-miterlimit="10" stroke-width="1.531"/>
      </g>
    </g>
    <path id="Path_730" data-name="Path 730" d="M5631.162,2777.521s-108.467,115.052-224.681,58.107-306.031-19.176-340.9,32.346-247.139,23.889-247.139,23.889-400.164-82.512-457.109,0" transform="translate(-3987.196 41.931)" fill="none" stroke="#3f1010" stroke-width="2"/>
  </g>
</svg>
