<svg xmlns="http://www.w3.org/2000/svg" xmlns:xlink="http://www.w3.org/1999/xlink" viewBox="0 0 166.37 330.82"><defs><style>.cls-1,.cls-3{fill:none;}.cls-2{clip-path:url(#clip-path);}.cls-3{stroke:#000;stroke-miterlimit:10;stroke-width:1.52px;}</style><clipPath id="clip-path" transform="translate(0 0)"><rect class="cls-1" width="166.37" height="330.82"/></clipPath></defs><g id="Layer_2" data-name="Layer 2"><g id="Layer_1-2" data-name="Layer 1"><g id="Artwork_5" data-name="Artwork 5"><g class="cls-2"><g class="cls-2"><path class="cls-3" d="M5.58,27.65c2.52,3.4,7.85,2,11.71.23A46.6,46.6,0,0,0,1.47,49.76a8.63,8.63,0,0,0-.62,4.32C1.4,57,4.7,58.78,7.68,58.65S13.4,57,16,55.52a42.13,42.13,0,0,0-9.76,28A11,11,0,0,0,7.4,88.78c1.57,2.64,4.94,3.77,8,3.51s5.91-1.63,8.67-3a55.93,55.93,0,0,0-6.69,26.15c0,4.65,1,10,5.07,12.26,2.35,1.29,5.23,1.2,7.87.66a26,26,0,0,0,12.86-6.83c4.17,7.9,11.68,14.33,20.51,15.7s18.66-3.17,22.07-11.43c.33-.78.4-2-.43-2.17a19.81,19.81,0,0,0,19.92-28.17A59.92,59.92,0,0,0,119,67.28c.41-2.14-1.07-5.48-2.79-4.14a61.07,61.07,0,0,0,1.85-18c-.22-4.53-1.3-10-3.72-13.87s-4.6-9.53-9.12-9.12c-.24-1.57-3.06.64-4.37-.25-5,5.28-8.36,13.19-15.46,14.7-5,1.06-10.17-1.73-13.38-5.7S67.12,22,65.54,17.1c-3.8,4-10.87,2.77-14.82-1.08s-5.17-9.5-7.16-14.56c-7.36.55-19-2.2-25.8.53S.38,20.65,5.58,27.65Z" transform="translate(0 0)"/><path class="cls-3" d="M76.11,53.74a23.91,23.91,0,0,0-10.58.06,33,33,0,0,0-11.62,5.66A47.27,47.27,0,0,0,38.65,77.77c-2.08,4.52-3.3,10-.92,14.36,2.78,5.12,9.76,6.77,15.31,5S62.89,91,66.42,86.35s6.8-10.2,7.45-16.18S72.15,57.58,66.93,54.6" transform="translate(0 0)"/><path class="cls-3" d="M71.9,68.79c6.63,2.56,14,1.34,21.06.26,17.73-2.73,37.67-3.85,51.7,7.32,13.14,10.47,17.05,28.6,18.63,45.32,1.39,14.68,1.67,29.45,1.94,44.19.48,25.65,1,51.37-1.58,76.91-2.9,29.31-9.73,59.11-3.27,87.86" transform="translate(0 0)"/></g></g></g></g></g></svg>