<svg xmlns="http://www.w3.org/2000/svg" viewBox="0 0 129.12 128.88"><defs><style>.cls-1{fill:#fff;}</style></defs><g id="Layer_2" data-name="Layer 2"><g id="Layer_1-2" data-name="Layer 1"><path class="cls-1" d="M129.12,128.88H0V0H129.12ZM64.64.46h-29C27,.46,18.47.44,9.91.47A9.08,9.08,0,0,0,.55,9.87q0,54.68,0,109.36A10.32,10.32,0,0,0,1,122.05c1.2,4.14,4.64,6.58,9.21,6.58H120.09a9.14,9.14,0,0,0,8.7-9.1q0-55,0-110a10,10,0,0,0-.12-1.43A9.39,9.39,0,0,0,119.24.42C101,.51,82.84.46,64.64.46Z"/><path d="M64.64.46c18.2,0,36.4,0,54.6,0a9.39,9.39,0,0,1,9.43,7.71,10,10,0,0,1,.12,1.43q0,55,0,110a9.14,9.14,0,0,1-8.7,9.1H10.16c-4.57,0-8-2.44-9.21-6.58a10.32,10.32,0,0,1-.39-2.82q0-54.67,0-109.36A9.08,9.08,0,0,1,9.91.47c8.56,0,17.12,0,25.68,0Zm4.3,55.89c0-2.2,0-4.4,0-6.6,0-1-.23-1.41-1.33-1.4q-8,.07-16,0c-1.06,0-1.36.33-1.36,1.37q0,29.4,0,58.81c0,1.15.42,1.43,1.47,1.42,5.44,0,10.88,0,16.32,0,1.58,0,1.59,0,1.59-1.59,0-9.8,0-19.6,0-29.41a35.27,35.27,0,0,1,.5-6.07c.75-4.08,2.6-7.44,7-8.54a16.88,16.88,0,0,1,4.26-.41c4.56.05,7.41,2.2,8.42,6.65A35.29,35.29,0,0,1,90.66,78c.09,10,0,20.08,0,30.13,0,1.77,0,1.77,1.81,1.78,5.32,0,10.64,0,16,0,1.19,0,1.57-.33,1.56-1.56,0-11.68.09-23.37-.09-35a56.67,56.67,0,0,0-1.46-11.6C106.91,55,103,50,96,48a46.59,46.59,0,0,0-7.3-1.11,19.93,19.93,0,0,0-13.35,3.15A24,24,0,0,0,68.94,56.35ZM19.34,79.2c0,9.75,0,19.51,0,29.27,0,1.18.38,1.5,1.51,1.49,5.47,0,11,0,16.43,0,1.06,0,1.47-.28,1.46-1.42q0-29.4,0-58.79c0-1.16-.42-1.39-1.46-1.39-5.4,0-10.8,0-16.2,0-1.71,0-1.71,0-1.71,1.67ZM29,40.15A11.14,11.14,0,1,0,17.89,29.09,11.07,11.07,0,0,0,29,40.15Z"/><path class="cls-1" d="M68.94,56.35a24,24,0,0,1,6.4-6.27,19.93,19.93,0,0,1,13.35-3.15A46.59,46.59,0,0,1,96,48c7,2,10.92,6.91,12.49,13.72a56.67,56.67,0,0,1,1.46,11.6c.18,11.67,0,23.36.09,35,0,1.23-.37,1.57-1.56,1.56-5.32,0-10.64,0-16,0-1.81,0-1.81,0-1.81-1.78,0-10,0-20.09,0-30.13a35.29,35.29,0,0,0-.79-7.47c-1-4.45-3.86-6.6-8.42-6.65a16.88,16.88,0,0,0-4.26.41c-4.39,1.1-6.24,4.46-7,8.54a35.27,35.27,0,0,0-.5,6.07c0,9.81,0,19.61,0,29.41,0,1.58,0,1.59-1.59,1.59-5.44,0-10.88,0-16.32,0-1.05,0-1.47-.27-1.47-1.42q0-29.4,0-58.81c0-1,.3-1.38,1.36-1.37q8,.07,16,0c1.1,0,1.36.39,1.33,1.4C68.9,52,68.94,54.15,68.94,56.35Z"/><path class="cls-1" d="M19.34,79.2V50c0-1.66,0-1.67,1.71-1.67,5.4,0,10.8,0,16.2,0,1,0,1.47.23,1.46,1.39q0,29.39,0,58.79c0,1.14-.4,1.43-1.46,1.42-5.48,0-11,0-16.43,0-1.13,0-1.51-.31-1.51-1.49C19.35,98.71,19.34,89,19.34,79.2Z"/><path class="cls-1" d="M29,40.15A11.14,11.14,0,1,1,40.15,29.09,11,11,0,0,1,29,40.15Z"/></g></g></svg>