<svg xmlns="http://www.w3.org/2000/svg" xmlns:xlink="http://www.w3.org/1999/xlink" viewBox="0 0 442.41 270.95"><defs><style>.cls-1,.cls-7{fill:none;}.cls-1{clip-rule:evenodd;}.cls-2,.cls-4{fill:#679e63;}.cls-3{fill:#333;}.cls-3,.cls-4,.cls-5{fill-rule:evenodd;}.cls-5{fill:url(#linear-gradient);}.cls-6{clip-path:url(#clip-path);}.cls-8{fill:#b4b4b4;opacity:0.66;}.cls-9{fill:url(#linear-gradient-2);}</style><linearGradient id="linear-gradient" x1="116.18" y1="115.53" x2="210.38" y2="115.53" gradientUnits="userSpaceOnUse"><stop offset="0.01"/><stop offset="0.19" stop-color="#171717"/><stop offset="0.54" stop-color="#3c3c3c"/><stop offset="0.82" stop-color="#545454"/><stop offset="1" stop-color="#5c5c5c"/></linearGradient><clipPath id="clip-path"><path class="cls-1" d="M165.82,62.59a5.1,5.1,0,0,0-5.07,0l-42,24.26a5.08,5.08,0,0,0-2.54,4.4v48.54a5.08,5.08,0,0,0,2.54,4.4l42,24.27a5,5,0,0,0,5.07,0l42-24.27a5.08,5.08,0,0,0,2.54-4.4V91.24a5.08,5.08,0,0,0-2.54-4.39Z"/></clipPath><linearGradient id="linear-gradient-2" x1="115.53" y1="115.46" x2="212.7" y2="115.46" gradientUnits="userSpaceOnUse"><stop offset="0" stop-color="#5c5c5c"/><stop offset="0.18" stop-color="#545454"/><stop offset="0.46" stop-color="#3c3c3c"/><stop offset="0.81" stop-color="#171717"/><stop offset="0.99"/></linearGradient></defs><g id="Layer_2" data-name="Layer 2"><g id="Layer_1-2" data-name="Layer 1"><path class="cls-2" d="M218.67,271a8.38,8.38,0,0,1-4.19-1.12l-13.34-7.89c-2-1.12-1-1.51-.36-1.74a26.64,26.64,0,0,0,6-2.74,1,1,0,0,1,1,.07l10.25,6.09a1.36,1.36,0,0,0,1.24,0l40-23.06a1.27,1.27,0,0,0,.61-1.08V193.37a1.29,1.29,0,0,0-.62-1.1l-39.94-23a1.23,1.23,0,0,0-1.23,0l-39.93,23a1.32,1.32,0,0,0-.63,1.1v46.11a1.22,1.22,0,0,0,.63,1.06l11,6.33c5.93,3,9.57-.53,9.57-4V197.3a1.15,1.15,0,0,1,1.16-1.15h5.07A1.15,1.15,0,0,1,206,197.3v45.53c0,7.92-4.31,12.47-11.83,12.47-2.3,0-4.12,0-9.2-2.5l-10.48-6a8.44,8.44,0,0,1-4.19-7.28V193.37a8.43,8.43,0,0,1,4.19-7.28l40-23.09a8.74,8.74,0,0,1,8.39,0l39.95,23.09a8.42,8.42,0,0,1,4.2,7.28v46.11a8.44,8.44,0,0,1-4.2,7.28l-39.95,23.07A8.33,8.33,0,0,1,218.67,271Z"/><path class="cls-2" d="M231,239.19c-17.48,0-21.15-8-21.15-14.76a1.15,1.15,0,0,1,1.16-1.15h5.16a1.15,1.15,0,0,1,1.15,1c.78,5.26,3.11,7.91,13.68,7.91,8.42,0,12-1.9,12-6.37,0-2.57-1-4.48-14.1-5.77-10.93-1.08-17.69-3.49-17.69-12.24,0-8.06,6.79-12.87,18.19-12.87,12.8,0,19.13,4.45,19.93,14a1.14,1.14,0,0,1-1.15,1.25H243a1.16,1.16,0,0,1-1.13-.9c-1.24-5.53-4.27-7.3-12.47-7.3-9.19,0-10.26,3.2-10.26,5.6,0,2.91,1.26,3.75,13.67,5.39s18.11,3.93,18.11,12.56S243.67,239.19,231,239.19Z"/><path class="cls-2" d="M288.62,190.83a7.7,7.7,0,1,1-7.7-7.7A7.72,7.72,0,0,1,288.62,190.83Zm-14.16,0a6.46,6.46,0,1,0,6.44-6.44A6.46,6.46,0,0,0,274.46,190.81Zm3.57-4.3h3c1,0,3,0,3,2.28a2,2,0,0,1-1.63,2.12c1.18.08,1.26.86,1.42,2a8.92,8.92,0,0,0,.45,2.28h-1.83c0-.41-.33-2.61-.33-2.73-.12-.49-.28-.73-.89-.73H279.7v3.46H278Zm1.63,3.79H281a1.16,1.16,0,0,0,1.31-1.22c0-1.18-.82-1.18-1.27-1.18h-1.38Z"/><path class="cls-3" d="M95,90.56a5.13,5.13,0,0,0-2.56-4.45L50,61.74a5,5,0,0,0-2.33-.68h-.44a5.06,5.06,0,0,0-2.34.68L2.56,86.11A5.15,5.15,0,0,0,0,90.56L.09,156.2a2.53,2.53,0,0,0,1.28,2.21,2.46,2.46,0,0,0,2.54,0L29.09,144a5.14,5.14,0,0,0,2.56-4.43V108.89a5.11,5.11,0,0,1,2.55-4.43l10.72-6.17a5,5,0,0,1,2.56-.69,4.94,4.94,0,0,1,2.55.69l10.71,6.17a5.09,5.09,0,0,1,2.56,4.43v30.67A5.14,5.14,0,0,0,65.87,144L91,158.41a2.5,2.5,0,0,0,2.56,0,2.56,2.56,0,0,0,1.27-2.21Z"/><path class="cls-3" d="M298.76.32A2.56,2.56,0,0,0,295,2.56v65a1.8,1.8,0,0,1-2.69,1.56L281.66,63a5.12,5.12,0,0,0-5.11,0L234.17,87.46a5.12,5.12,0,0,0-2.56,4.43v48.92a5.12,5.12,0,0,0,2.56,4.43l42.38,24.48a5.14,5.14,0,0,0,5.12,0l42.38-24.48a5.11,5.11,0,0,0,2.55-4.43V18.86A5.1,5.1,0,0,0,324,14.4Zm-3.93,124.42a1.26,1.26,0,0,1-.64,1.1l-14.55,8.39a1.27,1.27,0,0,1-1.28,0l-14.55-8.39a1.28,1.28,0,0,1-.64-1.1v-16.8a1.29,1.29,0,0,1,.64-1.11l14.55-8.4a1.27,1.27,0,0,1,1.28,0l14.55,8.4a1.27,1.27,0,0,1,.64,1.11Z"/><path class="cls-3" d="M439.87,107.5a5.13,5.13,0,0,0,2.54-4.43V91.22a5.13,5.13,0,0,0-2.55-4.43l-42.1-24.44a5.14,5.14,0,0,0-5.13,0L350.27,86.8a5.11,5.11,0,0,0-2.55,4.43v48.9a5.11,5.11,0,0,0,2.58,4.45l42.1,24a5.13,5.13,0,0,0,5,0l25.47-14.16a2.56,2.56,0,0,0,0-4.45l-42.63-24.47A2.55,2.55,0,0,1,379,123.3V108a2.55,2.55,0,0,1,1.28-2.21l13.27-7.65a2.55,2.55,0,0,1,2.56,0l13.27,7.65a2.55,2.55,0,0,1,1.28,2.21V120a2.56,2.56,0,0,0,3.84,2.22Z"/><path class="cls-4" d="M394.57,105.21a1,1,0,0,1,1,0l8.13,4.69a1,1,0,0,1,.49.85v9.39a1,1,0,0,1-.49.85l-8.13,4.69a1,1,0,0,1-1,0L386.45,121a1,1,0,0,1-.49-.85v-9.39a1,1,0,0,1,.49-.85Z"/><path class="cls-5" d="M160.74,62.59a5.1,5.1,0,0,1,5.07,0l42,24.26a5.08,5.08,0,0,1,2.54,4.4v48.54a5.08,5.08,0,0,1-2.54,4.4l-42,24.27a5,5,0,0,1-5.07,0l-42-24.27a5.08,5.08,0,0,1-2.54-4.4V91.24a5.08,5.08,0,0,1,2.54-4.39Z"/><g class="cls-6"><path class="cls-7" d="M160.69,62.59,118.62,86.85A5.17,5.17,0,0,0,116,91.24v48.55a5,5,0,0,0,1.18,3.18l47.3-80.9A5.13,5.13,0,0,0,160.69,62.59Z"/><path class="cls-7" d="M164.73,168.89a4.49,4.49,0,0,0,1-.43l41.93-24.27a4.9,4.9,0,0,0,2.34-4.4V91.25A5.29,5.29,0,0,0,208.92,88Z"/><path class="cls-8" d="M207.63,86.85,165.79,62.59a5,5,0,0,0-1.33-.52L117.16,143a5.42,5.42,0,0,0,1.43,1.22l42.1,24.27a5,5,0,0,0,4,.43L208.92,88A4.4,4.4,0,0,0,207.63,86.85Z"/><path class="cls-7" d="M119.1,86.57l-.48.28A5.17,5.17,0,0,0,116,91.24v48.55a5.15,5.15,0,0,0,2.61,4.4l42.1,24.27a4.94,4.94,0,0,0,3.65.54Z"/><path class="cls-7" d="M210,91.25a4.91,4.91,0,0,0-2.35-4.4L165.79,62.59a5.15,5.15,0,0,0-1.17-.48L210,139.6Z"/><path class="cls-9" d="M165.71,168.46l41.93-24.27a4.9,4.9,0,0,0,2.34-4.4v-.19L164.62,62.11a5.1,5.1,0,0,0-3.93.48l-41.59,24L164.34,169A4.72,4.72,0,0,0,165.71,168.46Z"/></g></g></g></svg>